<svg width="153" height="40" viewBox="0 0 153 40" fill="none" xmlns="http://www.w3.org/2000/svg">
<path d="M31.2063 6.98901C31.9119 7.64033 31.9649 8.73762 31.3248 9.43989L20.8168 20.9669C20.0196 21.8414 18.6722 21.9229 17.7588 21.1518L12.2944 16.5388C11.5609 15.9195 11.4591 14.8252 12.0671 14.0945C12.6751 13.3638 13.7626 13.2734 14.4961 13.8927L19.0533 17.7398L28.7695 7.08128C29.4097 6.37901 30.5007 6.3377 31.2063 6.98901Z" fill="#0080CE"/>
<path d="M11.9732 26.7928C10.9219 26.7928 9.81152 27.3406 9.81152 29.1508C9.81152 30.9609 10.9219 31.5087 11.9732 31.5087C12.9064 31.5087 13.686 31.1872 14.3003 30.7942V32.9259C13.6388 33.2593 12.7765 33.4737 11.9378 33.4737C9.20908 33.4737 7.57895 31.8303 7.57895 29.1508C7.57895 26.4832 9.20908 24.8278 11.9378 24.8278C12.7765 24.8278 13.6388 25.0422 14.3003 25.3756V27.5192C13.686 27.1262 12.9064 26.7928 11.9732 26.7928Z" fill="#0080CE"/>
<path d="M23.4072 24.9826H21.2691V28.1266H18.1624V24.9826H16.0125V33.3189H18.1624V30.1749H21.2691V33.3189H23.4072V24.9826Z" fill="#0080CE"/>
<path d="M30.0446 33.3189L28.0955 30.5084L27.5522 31.1872V33.3189H25.4141V24.9826H27.5522V28.1266L29.8911 24.9826H32.5489L29.4776 28.7935L32.6316 33.3189H30.0446Z" fill="#0080CE"/>
<path fill-rule="evenodd" clip-rule="evenodd" d="M35.3684 0H4.63158C2.07363 0 0 2.07363 0 4.63158V35.3684C0 37.9264 2.07363 40 4.63158 40H35.3684C37.9264 40 40 37.9264 40 35.3684V4.63158C40 2.07363 37.9264 0 35.3684 0ZM2.31579 4.63158C2.31579 3.3526 3.3526 2.31579 4.63158 2.31579H35.3684C36.6474 2.31579 37.6842 3.3526 37.6842 4.63158V35.3684C37.6842 36.6474 36.6474 37.6842 35.3684 37.6842H4.63158C3.3526 37.6842 2.31579 36.6474 2.31579 35.3684V4.63158Z" fill="#0080CE"/>
<path d="M56.0932 14.7548C53.1462 14.7548 50.991 16.3636 50.991 20C50.991 23.6143 53.1462 25.2231 56.0932 25.2231C57.8306 25.2231 59.2382 24.5399 60.3818 23.8127C60.3818 25.0468 60.3818 26.9201 60.3818 26.9201C59.1502 27.5152 57.5887 28 56.0273 28C50.947 28 48 24.9366 48 20C48 15.0413 50.947 12 56.0273 12C57.5887 12 59.1502 12.4628 60.3818 13.0799C60.3818 13.0799 60.3818 14.9311 60.3818 16.1653C59.2382 15.438 57.8306 14.7548 56.0932 14.7548Z" fill="#0080CE"/>
<path d="M73.0133 12.2865H75.9164V27.7135H73.0133V21.3664H65.9318V27.7135H63.0288V12.2865H65.9318V18.6116H73.0133V12.2865Z" fill="#0080CE"/>
<path d="M87.9543 27.7135L83.072 21.5207L81.9064 22.9752V27.7135H79.0034V12.2865H81.9064V18.9421L87.0746 12.2865H90.5494L84.8534 19.3388L91.5611 27.7135H87.9543Z" fill="#0080CE"/>
<path d="M109.727 12.2865H113.07L108.364 27.7135H104.955L102.206 17.3554L99.4567 27.7135H96.0479L91.3415 12.2865H94.6624L97.7193 23.9008L100.688 12.2865H103.723L106.692 23.9008L109.727 12.2865Z" fill="#0080CE"/>
<path d="M123.787 27.7135L122.665 24.6281H116.111L114.99 27.7135H111.867L117.893 12.2865H120.884L126.91 27.7135H123.787ZM117.101 21.8733H121.675L119.388 15.5702L117.101 21.8733Z" fill="#0080CE"/>
<path d="M141.181 27.7135H137.772L134.803 22.314C134.715 22.314 134.627 22.314 134.517 22.314H131.57V27.7135H128.667V12.2865H134.517C137.706 12.2865 140.235 13.5868 140.235 17.2893C140.235 19.6033 139.245 20.9917 137.728 21.697L141.181 27.7135ZM131.57 15.0413V19.5592H134.517C136.826 19.5592 137.288 18.4793 137.288 17.2893C137.288 16.1212 136.826 15.0413 134.517 15.0413H131.57Z" fill="#0080CE"/>
<path d="M145.718 24.9587H152.8V27.7135H142.837V12.2865H152.712V15.0413H145.718V18.6116H152.25V21.3664H145.718V24.9587Z" fill="#0080CE"/>
</svg>
