<svg width="2464" height="1581" viewBox="0 0 2464 1581" fill="none" xmlns="http://www.w3.org/2000/svg">
<path d="M721.67 773.05V549.77L616.43 550.22L404.63 427.94C378.52 412.87 346.35 412.87 320.25 427.94L104.63 552.43L3.04004 552.87V773.36H3.17004C2.17004 785.31 7.58004 797.72 19.45 804.57L320.25 978.24C346.36 993.31 378.53 993.31 404.63 978.24L705.43 804.57C717.39 797.67 722.8 785.1 721.68 773.06L721.67 773.05Z" fill="#F1F2F2"/>
<path d="M366.39 989.431C371.66 989.181 376.91 988.451 382.07 987.211V428.631H366.39V989.431Z" fill="#D1D3D4"/>
<path d="M104.63 552.42L3.04004 552.86V773.35H3.17004C2.17004 785.3 7.58004 797.71 19.45 804.56L320.25 978.23C332.07 985.05 345.13 988.78 358.31 989.42L359.84 447.82L320.4 427.86C320.4 427.86 320.3 427.91 320.25 427.94L104.63 552.43V552.42Z" fill="#D1D3D4"/>
<path d="M721.67 773.05V549.77L616.43 550.22L404.63 427.94C378.52 412.87 346.35 412.87 320.25 427.94L104.63 552.43L3.04004 552.87V773.36H3.17004C2.17004 785.31 7.58004 797.72 19.45 804.57L320.25 978.24C346.36 993.31 378.53 993.31 404.63 978.24L705.43 804.57C717.39 797.67 722.8 785.1 721.68 773.06L721.67 773.05Z" stroke="#7742A5" stroke-width="5" stroke-miterlimit="10" stroke-linecap="round"/>
<path d="M19.45 524.44L320.25 350.77C346.36 335.7 378.53 335.7 404.63 350.77L705.43 524.44C727.31 537.07 727.31 568.64 705.43 581.27L404.63 754.94C378.52 770.01 346.35 770.01 320.24 754.94L19.44 581.27C-2.43997 568.64 -2.43997 537.07 19.44 524.44H19.45Z" fill="white"/>
<path d="M19.45 524.44L320.25 350.77C346.36 335.7 378.53 335.7 404.63 350.77L705.43 524.44C727.31 537.07 727.31 568.64 705.43 581.27L404.63 754.94C378.52 770.01 346.35 770.01 320.24 754.94L19.44 581.27C-2.43997 568.64 -2.43997 537.07 19.44 524.44H19.45Z" stroke="#7742A5" stroke-width="5" stroke-miterlimit="10" stroke-linecap="round"/>
<path d="M640.53 529.88V420.19L559.06 420.54L395.1 325.88C374.89 314.21 349.99 314.21 329.78 325.88L162.86 422.25L84.22 422.59V530.12H84.32C83.55 539.37 87.74 548.98 96.92 554.28L329.78 688.72C349.99 700.39 374.89 700.39 395.1 688.72L627.96 554.28C637.22 548.93 641.4 539.21 640.54 529.89L640.53 529.88Z" fill="#F1F2F2"/>
<path d="M365.5 697.38C369.58 697.19 373.64 696.62 377.64 695.66V326.4H365.5V697.37V697.38Z" fill="#D1D3D4"/>
<path d="M162.86 422.241L84.22 422.581V530.111H84.32C83.55 539.361 87.74 548.971 96.92 554.271L329.78 688.711C338.93 693.991 349.04 696.881 359.24 697.371L360.42 341.261L329.89 325.811C329.89 325.811 329.81 325.851 329.78 325.871L162.86 422.241Z" fill="#D1D3D4"/>
<path d="M640.53 529.88V420.19L559.06 420.54L395.1 325.88C374.89 314.21 349.99 314.21 329.78 325.88L162.86 422.25L84.22 422.59V530.12H84.32C83.55 539.37 87.74 548.98 96.92 554.28L329.78 688.72C349.99 700.39 374.89 700.39 395.1 688.72L627.96 554.28C637.22 548.93 641.4 539.21 640.54 529.89L640.53 529.88Z" stroke="#7742A5" stroke-width="5" stroke-miterlimit="10" stroke-linecap="round"/>
<path d="M96.9199 400.58L329.78 266.14C349.99 254.47 374.89 254.47 395.1 266.14L627.96 400.58C644.89 410.36 644.89 434.8 627.96 444.58L395.1 579.02C374.89 590.69 349.99 590.69 329.78 579.02L96.9199 444.58C79.9899 434.8 79.9899 410.36 96.9199 400.58Z" fill="white"/>
<path d="M96.9199 400.58L329.78 266.14C349.99 254.47 374.89 254.47 395.1 266.14L627.96 400.58C644.89 410.36 644.89 434.8 627.96 444.58L395.1 579.02C374.89 590.69 349.99 590.69 329.78 579.02L96.9199 444.58C79.9899 434.8 79.9899 410.36 96.9199 400.58Z" stroke="#7742A5" stroke-width="5" stroke-miterlimit="10" stroke-linecap="round"/>
<path d="M160.59 399.65L340.29 295.9C355.89 286.89 375.11 286.89 390.7 295.9L570.4 399.65C583.47 407.2 583.47 426.06 570.4 433.6L390.7 537.35C375.1 546.36 355.88 546.36 340.29 537.35L160.59 433.6C147.52 426.05 147.52 407.19 160.59 399.65Z" stroke="#7742A5" stroke-width="5" stroke-miterlimit="10" stroke-linecap="round" stroke-dasharray="12.12 12.12"/>
<path d="M2219.12 584.719L2196.47 588.519C2187.09 575.659 2174.81 564.349 2159.6 555.569L1717.81 300.499C1638.15 254.509 1540.01 254.509 1460.36 300.499L483.51 864.479C475.98 868.829 469.17 873.789 463.07 879.259L424.16 885.789V961.209C423.94 965.449 423.94 969.709 424.16 973.949V974.079C426.19 1011.95 445.96 1049 483.5 1070.67L925.29 1325.74C1004.95 1371.73 1103.09 1371.73 1182.74 1325.74L2159.59 761.759C2199.68 738.609 2219.51 697.919 2219.09 657.409H2219.11V584.729L2219.12 584.719Z" fill="#F1F2F2"/>
<path d="M1027.48 550.42L483.51 864.48C475.98 868.83 469.17 873.79 463.07 879.26L424.16 885.79V961.21C423.94 965.45 423.94 969.71 424.16 973.95V974.08C426.19 1011.95 445.96 1049 483.5 1070.67L925.29 1325.74C957.18 1344.15 992.03 1355.18 1027.47 1358.85V550.42H1027.48Z" fill="#D1D3D4"/>
<path d="M1058.18 1360.19C1075.82 1359.91 1093.44 1357.8 1110.75 1353.89V502.33L1058.18 532.68V1360.18V1360.19Z" fill="#D1D3D4"/>
<path d="M2219.12 584.719L2196.47 588.519C2187.09 575.659 2174.81 564.349 2159.6 555.569L1717.81 300.499C1638.15 254.509 1540.01 254.509 1460.36 300.499L483.51 864.479C475.98 868.829 469.17 873.789 463.07 879.259L424.16 885.789V961.209C423.94 965.449 423.94 969.709 424.16 973.949V974.079C426.19 1011.95 445.96 1049 483.5 1070.67L925.29 1325.74C1004.95 1371.73 1103.09 1371.73 1182.74 1325.74L2159.59 761.759C2199.68 738.609 2219.51 697.919 2219.09 657.409H2219.11V584.729L2219.12 584.719Z" stroke="#7742A5" stroke-width="5" stroke-miterlimit="10" stroke-linecap="round"/>
<path d="M483.51 790.8L1460.36 226.82C1540.02 180.83 1638.16 180.83 1717.81 226.82L2159.6 481.89C2238.96 527.71 2238.96 642.26 2159.6 688.08L1182.75 1252.06C1103.09 1298.05 1004.95 1298.05 925.3 1252.06L483.51 996.99C404.15 951.17 404.15 836.62 483.51 790.8Z" fill="#7742A5"/>
<path d="M1054.03 1270.77C1011.67 1270.77 969.88 1259.57 933.19 1238.39L491.4 983.32C459.07 964.65 439.77 931.22 439.77 893.89C439.77 856.56 459.07 823.13 491.4 804.46L1468.25 240.48C1504.94 219.3 1546.72 208.1 1589.09 208.1C1631.46 208.1 1673.24 219.3 1709.93 240.48L2151.72 495.55C2184.05 514.22 2203.35 547.65 2203.35 584.98C2203.35 622.31 2184.05 655.74 2151.72 674.41L1174.87 1238.39C1138.18 1259.57 1096.4 1270.77 1054.03 1270.77Z" fill="#D9D2A3"/>
<path d="M483.51 790.8L1460.36 226.82C1540.02 180.83 1638.16 180.83 1717.81 226.82L2159.6 481.89C2238.96 527.71 2238.96 642.26 2159.6 688.08L1182.75 1252.06C1103.09 1298.05 1004.95 1298.05 925.3 1252.06L483.51 996.99C404.15 951.17 404.15 836.62 483.51 790.8Z" stroke="#7742A5" stroke-width="5" stroke-miterlimit="10" stroke-linecap="round"/>
<path d="M1784.9 327.03L1931.77 411.83C1949.76 422.22 1949.76 448.18 1931.77 458.57C1915.26 468.11 1894.92 468.11 1878.41 458.57L1731.54 373.77C1713.55 363.38 1713.55 337.42 1731.54 327.03C1748.05 317.49 1768.39 317.49 1784.9 327.03Z" fill="#7742A5"/>
<path d="M502.39 1037.74C498.54 1035.52 495.4 1037.34 495.4 1041.78C495.4 1046.22 498.55 1051.67 502.39 1053.89C506.24 1056.11 509.38 1054.29 509.38 1049.85C509.38 1045.41 506.23 1039.96 502.39 1037.74Z" fill="#7742A5"/>
<path d="M525.39 1050.87C521.54 1048.65 518.4 1050.47 518.4 1054.91C518.4 1059.35 521.55 1064.8 525.39 1067.02C529.24 1069.24 532.38 1067.42 532.38 1062.98C532.38 1058.54 529.23 1053.09 525.39 1050.87Z" fill="#7742A5"/>
<path d="M548.39 1063.99C544.54 1061.77 541.4 1063.59 541.4 1068.03C541.4 1072.47 544.55 1077.92 548.39 1080.14C552.24 1082.36 555.38 1080.54 555.38 1076.1C555.38 1071.66 552.23 1066.21 548.39 1063.99Z" fill="#7742A5"/>
<path d="M571.39 1077.12C567.54 1074.9 564.4 1076.72 564.4 1081.16C564.4 1085.6 567.55 1091.05 571.39 1093.27C575.24 1095.49 578.38 1093.67 578.38 1089.23C578.38 1084.79 575.23 1079.34 571.39 1077.12Z" fill="#7742A5"/>
<path d="M809.16 1213.24C805.31 1211.02 802.17 1212.84 802.17 1217.28C802.17 1221.72 805.32 1227.17 809.16 1229.39C813.01 1231.61 816.15 1229.79 816.15 1225.35C816.15 1220.91 813 1215.46 809.16 1213.24Z" fill="#7742A5"/>
<path d="M832.16 1226.36C828.31 1224.14 825.17 1225.96 825.17 1230.4C825.17 1234.84 828.32 1240.29 832.16 1242.51C836.01 1244.73 839.15 1242.91 839.15 1238.47C839.15 1234.03 836 1228.58 832.16 1226.36Z" fill="#7742A5"/>
<path d="M855.16 1239.49C851.31 1237.27 848.17 1239.09 848.17 1243.53C848.17 1247.97 851.32 1253.42 855.16 1255.64C859.01 1257.86 862.15 1256.04 862.15 1251.6C862.15 1247.16 859 1241.71 855.16 1239.49Z" fill="#7742A5"/>
<path d="M878.16 1252.62C874.31 1250.4 871.17 1252.22 871.17 1256.66C871.17 1261.1 874.32 1266.55 878.16 1268.77C882.01 1270.99 885.15 1269.17 885.15 1264.73C885.15 1260.29 882 1254.84 878.16 1252.62Z" fill="#7742A5"/>
<path d="M676.74 1130.91L709.91 1150.06C715.29 1153.17 718.6 1158.91 718.6 1165.12C718.6 1171.39 711.81 1175.31 706.38 1172.17L673.21 1153.02C667.83 1149.91 664.52 1144.17 664.52 1137.96C664.52 1131.69 671.31 1127.77 676.74 1130.91Z" fill="#7742A5"/>
<path d="M2461.24 938.069V852.459L2390.31 852.77L2247.56 770.349C2229.96 760.189 2208.28 760.189 2190.69 770.349L2045.37 854.25L1976.9 854.54V938.26H1976.99C1976.32 946.31 1979.97 954.68 1987.96 959.29L2190.69 1076.34C2208.29 1086.5 2229.97 1086.5 2247.56 1076.34L2450.29 959.29C2458.35 954.64 2461.99 946.17 2461.24 938.05V938.069Z" fill="#F1F2F2"/>
<path d="M2221.79 1083.9C2225.34 1083.73 2228.88 1083.24 2232.36 1082.4V770.81H2221.79V1083.89V1083.9Z" fill="#D1D3D4"/>
<path d="M2045.37 854.249L1976.9 854.539V938.259H1976.99C1976.32 946.309 1979.97 954.679 1987.96 959.289L2190.69 1076.34C2198.66 1080.94 2207.46 1083.45 2216.34 1083.88L2217.37 783.729L2190.79 770.279C2190.79 770.279 2190.72 770.319 2190.69 770.329L2045.37 854.229V854.249Z" fill="#D1D3D4"/>
<path d="M2461.24 938.069V852.459L2390.31 852.77L2247.56 770.349C2229.96 760.189 2208.28 760.189 2190.69 770.349L2045.37 854.25L1976.9 854.54V938.26H1976.99C1976.32 946.31 1979.97 954.68 1987.96 959.29L2190.69 1076.34C2208.29 1086.5 2229.97 1086.5 2247.56 1076.34L2450.29 959.29C2458.35 954.64 2461.99 946.17 2461.24 938.05V938.069Z" stroke="#7742A5" stroke-width="5" stroke-miterlimit="10" stroke-linecap="round"/>
<path d="M1987.96 835.39L2190.69 718.34C2208.29 708.18 2229.97 708.18 2247.56 718.34L2450.29 835.39C2465.03 843.9 2465.03 865.18 2450.29 873.69L2247.56 990.74C2229.96 1000.9 2208.28 1000.9 2190.69 990.74L1987.96 873.69C1973.22 865.18 1973.22 843.9 1987.96 835.39Z" fill="white"/>
<path d="M2039.99 839.7L2197.09 749C2210.73 741.13 2227.53 741.13 2241.16 749L2398.26 839.7C2409.69 846.3 2409.69 862.79 2398.26 869.38L2241.16 960.08C2227.52 967.95 2210.72 967.95 2197.09 960.08L2039.99 869.38C2028.56 862.78 2028.56 846.29 2039.99 839.7Z" fill="url(#paint0_linear_581_6375)"/>
<path d="M2039.99 839.7L2197.09 749C2210.73 741.13 2227.53 741.13 2241.16 749L2398.26 839.7C2409.69 846.3 2409.69 862.79 2398.26 869.38L2241.16 960.08C2227.52 967.95 2210.72 967.95 2197.09 960.08L2039.99 869.38C2028.56 862.78 2028.56 846.29 2039.99 839.7Z" stroke="#7742A5" stroke-width="5" stroke-miterlimit="10" stroke-linecap="round"/>
<path d="M1987.96 835.39L2190.69 718.34C2208.29 708.18 2229.97 708.18 2247.56 718.34L2450.29 835.39C2465.03 843.9 2465.03 865.18 2450.29 873.69L2247.56 990.74C2229.96 1000.9 2208.28 1000.9 2190.69 990.74L1987.96 873.69C1973.22 865.18 1973.22 843.9 1987.96 835.39Z" stroke="#7742A5" stroke-width="5" stroke-miterlimit="10" stroke-linecap="round"/>
<path d="M201.5 398.63L340.36 318.46C352.41 311.5 367.26 311.5 379.31 318.46L518.16 398.63C528.26 404.46 528.26 419.04 518.16 424.87L379.31 505.04C367.26 512 352.41 512 340.36 505.04L201.51 424.87C191.41 419.04 191.41 404.46 201.51 398.63H201.5Z" fill="white"/>
<path d="M201.5 398.63L340.36 318.46C352.41 311.5 367.26 311.5 379.31 318.46L518.16 398.63C528.26 404.46 528.26 419.04 518.16 424.87L379.31 505.04C367.26 512 352.41 512 340.36 505.04L201.51 424.87C191.41 419.04 191.41 404.46 201.51 398.63H201.5Z" stroke="#7742A5" stroke-width="5" stroke-miterlimit="10" stroke-linecap="round"/>
<path d="M518.16 398.63L505.84 391.52L405.28 389.77C398.64 389.65 393.35 395.27 393.85 401.89L395.12 418.64C395.84 428.06 387.68 435.73 378.32 434.44L322.26 426.7C314.37 425.61 307.87 432.83 309.78 440.57L323.31 495.21L340.35 505.05C352.4 512.01 367.25 512.01 379.3 505.05L518.15 424.88C528.25 419.05 528.25 404.47 518.15 398.64L518.16 398.63Z" fill="url(#paint1_linear_581_6375)"/>
<path d="M518.16 398.63L505.84 391.52L405.28 389.77C398.64 389.65 393.35 395.27 393.85 401.89L395.12 418.64C395.84 428.06 387.68 435.73 378.32 434.44L322.26 426.7C314.37 425.61 307.87 432.83 309.78 440.57L323.31 495.21L340.35 505.05C352.4 512.01 367.25 512.01 379.3 505.05L518.15 424.88C528.25 419.05 528.25 404.47 518.15 398.64L518.16 398.63Z" stroke="#7742A5" stroke-width="5" stroke-miterlimit="10" stroke-linecap="round"/>
<path d="M343.51 364.06C352.49 369.24 367.17 369.24 376.15 364.06C385.13 358.88 385.13 350.4 376.15 345.22C367.17 340.04 352.49 340.04 343.51 345.22C334.53 350.4 334.53 358.88 343.51 364.06Z" fill="#D9D2A3"/>
<path d="M343.51 364.06C352.49 369.24 367.17 369.24 376.15 364.06C385.13 358.88 385.13 350.4 376.15 345.22C367.17 340.04 352.49 340.04 343.51 345.22C334.53 350.4 334.53 358.88 343.51 364.06Z" stroke="#231F20" stroke-width="5" stroke-miterlimit="10"/>
<path d="M1998.4 510.93V401.24L1916.93 401.59L1752.97 306.93C1732.76 295.26 1707.86 295.26 1687.65 306.93L1520.73 403.3L1442.09 403.64V511.17H1442.19C1441.42 520.42 1445.61 530.03 1454.79 535.33L1687.65 669.77C1707.86 681.44 1732.76 681.44 1752.97 669.77L1985.83 535.33C1995.09 529.98 1999.27 520.26 1998.41 510.94L1998.4 510.93Z" fill="#F1F2F2"/>
<path d="M1723.36 678.43C1727.44 678.24 1731.5 677.67 1735.5 676.71V307.45H1723.36V678.42V678.43Z" fill="#D1D3D4"/>
<path d="M1520.72 403.29L1442.08 403.63V511.16H1442.18C1441.41 520.41 1445.6 530.02 1454.78 535.32L1687.64 669.76C1696.79 675.04 1706.9 677.93 1717.1 678.42L1718.28 322.31L1687.75 306.86C1687.75 306.86 1687.67 306.9 1687.64 306.92L1520.72 403.29Z" fill="#D1D3D4"/>
<path d="M1998.4 510.93V401.24L1916.93 401.59L1752.97 306.93C1732.76 295.26 1707.86 295.26 1687.65 306.93L1520.73 403.3L1442.09 403.64V511.17H1442.19C1441.42 520.42 1445.61 530.03 1454.79 535.33L1687.65 669.77C1707.86 681.44 1732.76 681.44 1752.97 669.77L1985.83 535.33C1995.09 529.98 1999.27 520.26 1998.41 510.94L1998.4 510.93Z" stroke="#7742A5" stroke-width="5" stroke-miterlimit="10" stroke-linecap="round"/>
<path d="M1454.78 381.63L1687.64 247.19C1707.85 235.52 1732.75 235.52 1752.96 247.19L1985.82 381.63C2002.75 391.41 2002.75 415.85 1985.82 425.63L1752.96 560.07C1732.75 571.74 1707.85 571.74 1687.64 560.07L1454.78 425.63C1437.85 415.85 1437.85 391.41 1454.78 381.63Z" fill="white"/>
<path d="M1454.78 381.63L1687.64 247.19C1707.85 235.52 1732.75 235.52 1752.96 247.19L1985.82 381.63C2002.75 391.41 2002.75 415.85 1985.82 425.63L1752.96 560.07C1732.75 571.74 1707.85 571.74 1687.64 560.07L1454.78 425.63C1437.85 415.85 1437.85 391.41 1454.78 381.63Z" stroke="#7742A5" stroke-width="5" stroke-miterlimit="10" stroke-linecap="round"/>
<path d="M1559.41 900.691V836.071L1409.78 836.711L1108.65 662.851C1071.53 641.421 1025.8 641.421 988.67 662.851L682.11 839.841L537.68 840.461V901.111H537.87C536.45 918.101 544.15 935.751 561.01 945.481L988.67 1192.39C1025.79 1213.82 1071.53 1213.82 1108.65 1192.39L1536.31 945.481C1553.31 935.661 1561 917.801 1559.41 900.681V900.691Z" fill="#F1F2F2"/>
<path d="M1054.29 1208.33C1061.78 1207.98 1069.24 1206.93 1076.58 1205.18V663.841H1054.29V1208.33Z" fill="#D1D3D4"/>
<path d="M682.12 839.85L537.69 840.47V901.12H537.88C536.46 918.11 544.16 935.76 561.02 945.49L988.68 1192.4C1005.48 1202.1 1024.05 1207.4 1042.79 1208.31L1044.96 691.11L988.89 662.73C988.82 662.77 988.75 662.81 988.68 662.85L682.12 839.84V839.85Z" fill="#D1D3D4"/>
<path d="M1559.41 900.691V836.071L1409.78 836.711L1108.65 662.851C1071.53 641.421 1025.8 641.421 988.67 662.851L682.11 839.841L537.68 840.461V901.111H537.87C536.45 918.101 544.15 935.751 561.01 945.481L988.67 1192.39C1025.79 1213.82 1071.53 1213.82 1108.65 1192.39L1536.31 945.481C1553.31 935.661 1561 917.801 1559.41 900.681V900.691Z" stroke="#7742A5" stroke-width="5" stroke-miterlimit="10" stroke-linecap="round"/>
<path d="M561.01 800.061L988.67 553.151C1025.79 531.721 1071.53 531.721 1108.65 553.151L1536.31 800.061C1567.41 818.021 1567.41 862.911 1536.31 880.871L1108.65 1127.78C1071.53 1149.21 1025.8 1149.21 988.67 1127.78L561.01 880.871C529.91 862.911 529.91 818.021 561.01 800.061Z" fill="url(#paint2_linear_581_6375)"/>
<g style="mix-blend-mode:multiply">
<path d="M1090.09 996.221L1483.08 769.331L1108.65 553.151C1071.53 531.721 1025.8 531.721 988.67 553.151L596.35 779.651L971.46 996.221C1008.16 1017.41 1053.38 1017.41 1090.08 996.221H1090.09Z" fill="#7D91DE"/>
</g>
<path d="M561.01 800.061L988.67 553.151C1025.79 531.721 1071.53 531.721 1108.65 553.151L1536.31 800.061C1567.41 818.021 1567.41 862.911 1536.31 880.871L1108.65 1127.78C1071.53 1149.21 1025.8 1149.21 988.67 1127.78L561.01 880.871C529.91 862.911 529.91 818.021 561.01 800.061Z" stroke="#7742A5" stroke-width="5" stroke-miterlimit="10" stroke-linecap="round"/>
<path d="M788.68 767.17C811.191 767.17 829.44 748.921 829.44 726.41C829.44 703.899 811.191 685.65 788.68 685.65C766.169 685.65 747.92 703.899 747.92 726.41C747.92 748.921 766.169 767.17 788.68 767.17Z" fill="url(#paint3_linear_581_6375)"/>
<path opacity="0.51" d="M815.281 723.395C821.366 717.31 821.366 707.446 815.281 701.361C809.197 695.277 799.332 695.277 793.248 701.361C787.164 707.446 787.164 717.31 793.248 723.395C799.332 729.479 809.197 729.479 815.281 723.395Z" fill="white"/>
<path d="M1314.68 737.56C1337.19 737.56 1355.44 719.311 1355.44 696.8C1355.44 674.289 1337.19 656.04 1314.68 656.04C1292.17 656.04 1273.92 674.289 1273.92 696.8C1273.92 719.311 1292.17 737.56 1314.68 737.56Z" fill="url(#paint4_linear_581_6375)"/>
<path d="M1314.68 737.56C1337.19 737.56 1355.44 719.311 1355.44 696.8C1355.44 674.289 1337.19 656.04 1314.68 656.04C1292.17 656.04 1273.92 674.289 1273.92 696.8C1273.92 719.311 1292.17 737.56 1314.68 737.56Z" fill="url(#paint5_linear_581_6375)"/>
<path opacity="0.51" d="M1345.57 685.214C1346.95 676.722 1341.19 668.715 1332.7 667.33C1324.21 665.946 1316.2 671.708 1314.82 680.2C1313.43 688.693 1319.19 696.7 1327.69 698.084C1336.18 699.469 1344.18 693.707 1345.57 685.214Z" fill="white"/>
<path d="M692.81 611.99C699.78 615.66 704.14 623.98 704.14 635.93C704.14 659.15 687.69 687.65 667.58 699.26C656.48 705.67 646.48 705.65 639.76 700.43" stroke="#7742A5" stroke-width="5" stroke-miterlimit="10" stroke-linecap="round"/>
<path d="M910.86 736.45C918.02 740.22 922.49 748.75 922.49 761.02C922.49 784.85 905.61 814.09 884.97 826C873.58 832.58 863.32 832.55 856.43 827.2" stroke="#7742A5" stroke-width="5" stroke-miterlimit="10" stroke-linecap="round"/>
<path d="M1382.33 595.38C1375.3 599.09 1370.9 607.48 1370.9 619.53C1370.9 642.95 1387.5 671.7 1407.78 683.41C1418.98 689.88 1429.06 689.85 1435.84 684.59" stroke="#7742A5" stroke-width="5" stroke-miterlimit="10" stroke-linecap="round"/>
<path d="M1164.64 720.641C1157.55 724.381 1153.11 732.841 1153.11 744.991C1153.11 768.611 1169.84 797.591 1190.3 809.401C1201.59 815.921 1211.75 815.891 1218.59 810.591" stroke="#7742A5" stroke-width="5" stroke-miterlimit="10" stroke-linecap="round"/>
<path opacity="0.51" d="M1545.15 501.9L1046.16 788.53C1032.41 796.43 1015.51 796.44 1001.75 788.55L539.74 523.78L485.72 611.68L946.04 879.52C993.26 906.99 1051.58 907.05 1098.85 879.67L1596.57 591.4L1545.13 501.9H1545.15Z" fill="white"/>
<path opacity="0.51" d="M998.51 851.25C1013.56 859.88 1032.06 859.87 1047.1 851.23L1572.61 549.36L1560.74 528.7L1046.78 823.93C1032.62 832.06 1015.21 832.07 1001.04 823.95L525.17 551.23L512.11 572.49L998.51 851.25Z" fill="white"/>
<path d="M1545.15 501.9L1046.16 788.53C1032.41 796.43 1015.51 796.44 1001.75 788.55L539.74 523.78L485.72 611.68L946.04 879.52C993.26 906.99 1051.58 907.05 1098.85 879.67L1596.57 591.4L1545.13 501.9H1545.15Z" stroke="#7742A5" stroke-width="5" stroke-miterlimit="10" stroke-linecap="round"/>
<path d="M512.11 525.091C532.22 513.481 548.67 522.981 548.67 546.201C548.67 569.421 532.22 597.921 512.11 609.531C492 621.141 475.55 611.641 475.55 588.421C475.55 565.201 492 536.701 512.11 525.091Z" fill="#7742A5"/>
<path d="M512.11 525.091C532.22 513.481 548.67 522.981 548.67 546.201C548.67 569.421 532.22 597.921 512.11 609.531C492 621.141 475.55 611.641 475.55 588.421C475.55 565.201 492 536.701 512.11 525.091Z" stroke="#7742A5" stroke-width="5" stroke-miterlimit="10" stroke-linecap="round"/>
<path d="M640.76 702.04C634.71 697.93 631.01 689.94 631.01 678.87C631.01 655.41 647.64 626.61 667.96 614.88C678.12 609.01 687.36 608.48 694.05 612.35" stroke="#7742A5" stroke-width="5" stroke-miterlimit="10" stroke-linecap="round"/>
<path d="M854.34 826.21C848.19 822.02 844.42 813.9 844.42 802.63C844.42 778.75 861.34 749.44 882.02 737.5C892.36 731.53 901.76 730.99 908.58 734.92" stroke="#7742A5" stroke-width="5" stroke-miterlimit="10" stroke-linecap="round"/>
<path d="M1433.31 685.64C1439.36 681.56 1443.06 673.64 1443.06 662.67C1443.06 639.4 1426.43 610.85 1406.11 599.22C1395.95 593.4 1386.71 592.88 1380.02 596.71" stroke="#7742A5" stroke-width="5" stroke-miterlimit="10" stroke-linecap="round"/>
<path d="M1219.74 809.86C1225.89 805.75 1229.66 797.78 1229.66 786.73C1229.66 763.31 1212.74 734.57 1192.06 722.86C1181.72 717.01 1172.32 716.47 1165.5 720.33" stroke="#7742A5" stroke-width="5" stroke-miterlimit="10" stroke-linecap="round"/>
<path d="M1570.13 504.86C1550.02 493.25 1533.57 502.75 1533.57 525.97C1533.57 549.19 1550.02 577.69 1570.13 589.3C1590.24 600.91 1606.69 591.41 1606.69 568.19C1606.69 544.97 1590.24 516.47 1570.13 504.86Z" fill="#7742A5"/>
<path d="M1570.13 504.86C1550.02 493.25 1533.57 502.75 1533.57 525.97C1533.57 549.19 1550.02 577.69 1570.13 589.3C1590.24 600.91 1606.69 591.41 1606.69 568.19C1606.69 544.97 1590.24 516.47 1570.13 504.86Z" stroke="#7742A5" stroke-width="5" stroke-miterlimit="10" stroke-linecap="round"/>
<path d="M1559.41 404.93V340.31L1409.78 340.95L1108.65 167.09C1071.53 145.66 1025.8 145.66 988.67 167.09L682.11 344.08L537.68 344.7V405.35H537.87C536.45 422.34 544.15 439.99 561.01 449.72L988.67 696.63C1025.79 718.06 1071.53 718.06 1108.65 696.63L1536.31 449.72C1553.31 439.9 1561 422.04 1559.41 404.92V404.93Z" fill="#F1F2F2"/>
<path d="M1054.29 712.56C1061.78 712.21 1069.24 711.16 1076.58 709.41V168.07H1054.29V712.56Z" fill="#D1D3D4"/>
<path d="M682.12 344.08L537.69 344.7V405.35H537.88C536.46 422.34 544.16 439.99 561.02 449.72L988.68 696.63C1005.48 706.33 1024.05 711.63 1042.79 712.54L1044.96 195.34L988.89 166.96C988.82 167 988.75 167.04 988.68 167.08L682.12 344.07V344.08Z" fill="#D1D3D4"/>
<path d="M1559.41 404.93V340.31L1409.78 340.95L1108.65 167.09C1071.53 145.66 1025.8 145.66 988.67 167.09L682.11 344.08L537.68 344.7V405.35H537.87C536.45 422.34 544.15 439.99 561.01 449.72L988.67 696.63C1025.79 718.06 1071.53 718.06 1108.65 696.63L1536.31 449.72C1553.31 439.9 1561 422.04 1559.41 404.92V404.93Z" stroke="#7742A5" stroke-width="5" stroke-miterlimit="10" stroke-linecap="round"/>
<path d="M561.01 304.29L988.67 57.3801C1025.79 35.9501 1071.53 35.9501 1108.65 57.3801L1536.31 304.29C1567.41 322.25 1567.41 367.14 1536.31 385.1L1108.65 632.01C1071.53 653.44 1025.8 653.44 988.67 632.01L561.01 385.1C529.91 367.14 529.91 322.25 561.01 304.29Z" fill="white"/>
<path d="M561.01 304.29L988.67 57.3801C1025.79 35.9501 1071.53 35.9501 1108.65 57.3801L1536.31 304.29C1567.41 322.25 1567.41 367.14 1536.31 385.1L1108.65 632.01C1071.53 653.44 1025.8 653.44 988.67 632.01L561.01 385.1C529.91 367.14 529.91 322.25 561.01 304.29Z" stroke="#7742A5" stroke-width="5" stroke-miterlimit="10" stroke-linecap="round"/>
<path d="M1847.18 229.91L1640.63 114.1C1635.39 111.07 1629.56 111.19 1624.76 113.45L1624.57 113.55C1624.04 113.81 1623.52 114.08 1623.02 114.39L1598.97 127.47L1607.04 165.29L1614.87 163.37V304.06C1614.87 314.92 1620.66 324.96 1630.07 330.4L1683.22 360.06L1708.15 424.18C1710.55 432.99 1716.33 435.03 1724.46 430.89L1758.98 404.47L1804.4 430.38L1802.1 432.61L1828.49 462.58L1853.12 449.13C1858.47 446.33 1862.38 440.82 1862.38 433.91V256.28C1862.38 245.41 1856.58 235.37 1847.17 229.93L1847.18 229.91Z" fill="#F1F2F2"/>
<path d="M1683.22 360.06L1708.15 424.18C1710.55 432.99 1716.33 435.03 1724.46 430.89L1758.98 404.47L1804.4 430.38L1802.1 432.61L1828.49 462.58L1853.12 449.13C1858.47 446.33 1862.38 440.82 1862.38 433.91V256.28C1862.38 253.53 1862.01 250.83 1861.3 248.25L1674.33 355.13L1683.21 360.09L1683.22 360.06Z" fill="#D1D3D4"/>
<path d="M1630.07 330.39L1665.13 349.95L1856.92 238.85C1854.41 235.25 1851.12 232.17 1847.19 229.9L1823.62 216.68L1628.41 329.34C1628.95 329.7 1629.51 330.05 1630.08 330.38L1630.07 330.39Z" fill="#D1D3D4"/>
<path d="M1847.18 229.91L1640.63 114.1C1635.39 111.07 1629.56 111.19 1624.76 113.45L1624.57 113.55C1624.04 113.81 1623.52 114.08 1623.02 114.39L1598.97 127.47L1607.04 165.29L1614.87 163.37V304.06C1614.87 314.92 1620.66 324.96 1630.07 330.4L1683.22 360.06L1708.15 424.18C1710.55 432.99 1716.33 435.03 1724.46 430.89L1758.98 404.47L1804.4 430.38L1802.1 432.61L1828.49 462.58L1853.12 449.13C1858.47 446.33 1862.38 440.82 1862.38 433.91V256.28C1862.38 245.41 1856.58 235.37 1847.17 229.93L1847.18 229.91Z" stroke="#7742A5" stroke-width="5" stroke-miterlimit="10" stroke-linecap="round"/>
<path d="M1589.97 142.55V317.63C1589.97 328.49 1595.76 338.53 1605.17 343.97L1658.32 373.63L1683.25 437.75C1685.65 446.56 1695.54 450.93 1703.67 446.78L1738.19 420.36L1811.56 462.25C1823.01 469.03 1837.49 460.77 1837.49 447.47V269.84C1837.49 258.97 1831.69 248.93 1822.28 243.49L1615.73 127.68C1604.28 121.07 1589.97 129.33 1589.97 142.55Z" fill="url(#paint6_linear_581_6375)"/>
<path d="M1589.97 142.55V317.63C1589.97 328.49 1595.76 338.53 1605.17 343.97L1658.32 373.63L1683.25 437.75C1685.65 446.56 1695.54 450.93 1703.67 446.78L1738.19 420.36L1811.56 462.25C1823.01 469.03 1837.49 460.77 1837.49 447.47V269.84C1837.49 258.97 1831.69 248.93 1822.28 243.49L1615.73 127.68C1604.28 121.07 1589.97 129.33 1589.97 142.55Z" stroke="#7742A5" stroke-width="5" stroke-miterlimit="10" stroke-linecap="round"/>
<path d="M1643.52 233.14C1633.36 227.28 1625.05 232.07 1625.05 243.8C1625.05 255.53 1633.36 269.92 1643.52 275.79C1653.68 281.65 1661.99 276.86 1661.99 265.13C1661.99 253.4 1653.68 239.01 1643.52 233.14Z" fill="white"/>
<path d="M1713.73 273.69C1703.57 267.83 1695.26 272.62 1695.26 284.35C1695.26 296.08 1703.57 310.47 1713.73 316.34C1723.89 322.2 1732.2 317.41 1732.2 305.68C1732.2 293.95 1723.89 279.56 1713.73 273.69Z" fill="white"/>
<path d="M1783.94 314.24C1773.78 308.38 1765.47 313.17 1765.47 324.9C1765.47 336.63 1773.78 351.02 1783.94 356.89C1794.1 362.75 1802.41 357.96 1802.41 346.23C1802.41 334.5 1794.1 320.11 1783.94 314.24Z" fill="white"/>
<path d="M1054.59 712.561L1054.58 728.061" stroke="#7742A5" stroke-width="5" stroke-miterlimit="10" stroke-linecap="round"/>
<path d="M1054.55 758.851L1054.22 1112.96" stroke="#7742A5" stroke-width="5" stroke-miterlimit="10" stroke-linecap="round" stroke-dasharray="30.79 30.79"/>
<path d="M1054.21 1128.36L1054.2 1143.86" stroke="#7742A5" stroke-width="5" stroke-miterlimit="10" stroke-linecap="round"/>
<path d="M537.88 424.3L537.87 439.8" stroke="#7742A5" stroke-width="5" stroke-miterlimit="10" stroke-linecap="round"/>
<path d="M537.84 470.59L537.52 824.7" stroke="#7742A5" stroke-width="5" stroke-miterlimit="10" stroke-linecap="round" stroke-dasharray="30.79 30.79"/>
<path d="M537.5 840.1L537.49 855.6" stroke="#7742A5" stroke-width="5" stroke-miterlimit="10" stroke-linecap="round"/>
<path d="M1559.64 416.63L1559.63 432.13" stroke="#7742A5" stroke-width="5" stroke-miterlimit="10" stroke-linecap="round"/>
<path d="M1559.6 461.62L1559.27 800.84" stroke="#7742A5" stroke-width="5" stroke-miterlimit="10" stroke-linecap="round" stroke-dasharray="29.5 29.5"/>
<path d="M1559.26 815.58L1559.24 831.08" stroke="#7742A5" stroke-width="5" stroke-miterlimit="10" stroke-linecap="round"/>
<path d="M1287.2 323.82L1374.76 375.05C1395.9 387.42 1395.81 418.01 1374.6 430.26C1346.7 446.37 1312.32 446.37 1284.42 430.26L1195.98 379.2C1174.69 366.91 1174.69 336.19 1195.98 323.9L1196.57 323.56C1224.64 307.36 1259.24 307.46 1287.21 323.82H1287.2Z" fill="white"/>
<path d="M1195.98 341.74L1196.57 341.4C1224.64 325.2 1259.24 325.3 1287.21 341.66L1374.77 392.89C1382.34 397.32 1387.18 404.1 1389.31 411.52C1393.11 398.28 1388.28 382.94 1374.77 375.04L1287.21 323.81C1259.24 307.44 1224.64 307.34 1196.57 323.55L1195.98 323.89C1182.36 331.75 1177.47 347.16 1181.28 360.46C1183.42 352.98 1188.31 346.16 1195.98 341.73V341.74Z" fill="#7742A5"/>
<path d="M1287.2 323.82L1374.76 375.05C1395.9 387.42 1395.81 418.01 1374.6 430.26C1346.7 446.37 1312.32 446.37 1284.42 430.26L1195.98 379.2C1174.69 366.91 1174.69 336.19 1195.98 323.9L1196.57 323.56C1224.64 307.36 1259.24 307.46 1287.21 323.82H1287.2Z" stroke="#7742A5" stroke-width="5" stroke-miterlimit="10" stroke-linecap="round"/>
<path d="M1389.39 402.22V397.32H1388.3C1386.06 390.88 1380.64 384.75 1372.04 379.78C1348.76 366.34 1310.67 366.34 1287.39 379.78C1278.79 384.75 1273.38 390.88 1271.13 397.32H1270.04L1269.94 404.09C1269.88 412.99 1275.7 421.9 1287.39 428.66C1310.67 442.1 1348.76 442.1 1372.04 428.66C1384.56 421.43 1390.33 411.74 1389.39 402.22Z" fill="#F1F2F2"/>
<path d="M1389.39 402.22V397.32H1388.3C1386.06 390.88 1380.64 384.75 1372.04 379.78C1348.76 366.34 1310.67 366.34 1287.39 379.78C1278.79 384.75 1273.38 390.88 1271.13 397.32H1270.04L1269.94 404.09C1269.88 412.99 1275.7 421.9 1287.39 428.66C1310.67 442.1 1348.76 442.1 1372.04 428.66C1384.56 421.43 1390.33 411.74 1389.39 402.22Z" stroke="#7742A5" stroke-width="5" stroke-miterlimit="10" stroke-linecap="round"/>
<path d="M1287.39 419.67C1310.67 433.11 1348.76 433.11 1372.04 419.67C1395.32 406.23 1395.32 384.24 1372.04 370.8C1348.76 357.36 1310.67 357.36 1287.39 370.8C1264.11 384.24 1264.11 406.23 1287.39 419.67Z" fill="url(#paint7_linear_581_6375)"/>
<path d="M1287.39 419.67C1310.67 433.11 1348.76 433.11 1372.04 419.67C1395.32 406.23 1395.32 384.24 1372.04 370.8C1348.76 357.36 1310.67 357.36 1287.39 370.8C1264.11 384.24 1264.11 406.23 1287.39 419.67Z" stroke="#7742A5" stroke-width="5" stroke-miterlimit="10" stroke-linecap="round"/>
<path d="M1374.03 227.25L1532.45 320.15C1546.45 328.36 1546.38 348.62 1532.33 356.74L1480.58 386.62C1465.88 395.11 1447.77 395.11 1433.07 386.62L1274.06 294.82C1260.06 286.74 1259.92 266.57 1273.81 258.3L1325.68 227.41C1340.56 218.55 1359.09 218.49 1374.03 227.25Z" fill="#7742A5"/>
<path d="M1340.47 275.88L1350.28 270.21" stroke="#D9D2A3" stroke-width="5" stroke-miterlimit="10" stroke-linecap="round"/>
<path d="M1352.79 290.31L1374.4 277.83" stroke="#D9D2A3" stroke-width="5" stroke-miterlimit="10" stroke-linecap="round"/>
<path d="M1363.59 304.94L1399.73 284.07" stroke="#D9D2A3" stroke-width="5" stroke-miterlimit="10" stroke-linecap="round"/>
<path d="M1373.17 321.33L1427.27 290.09" stroke="#D9D2A3" stroke-width="5" stroke-miterlimit="10" stroke-linecap="round"/>
<path d="M1404.49 325.94L1435.41 308.09" stroke="#D9D2A3" stroke-width="5" stroke-miterlimit="10" stroke-linecap="round"/>
<path d="M1415.57 340.26L1459.77 314.74" stroke="#D9D2A3" stroke-width="5" stroke-miterlimit="10" stroke-linecap="round"/>
<path d="M1446.18 343.51L1465.92 332.11" stroke="#D9D2A3" stroke-width="5" stroke-miterlimit="10" stroke-linecap="round"/>
<path d="M1318.97 203.79V150.59L1246.4 150.9L1100.36 66.5796C1082.36 56.1896 1060.18 56.1896 1042.18 66.5796L893.51 152.41L823.47 152.71V203.99H823.56C822.87 212.23 826.6 220.79 834.78 225.51L1042.18 345.25C1060.18 355.64 1082.36 355.64 1100.36 345.25L1307.76 225.51C1316.01 220.75 1319.73 212.08 1318.96 203.78L1318.97 203.79Z" fill="#F1F2F2"/>
<path d="M1074 352.99C1077.63 352.82 1081.25 352.31 1084.81 351.46V67.0703H1074V352.99Z" fill="#D1D3D4"/>
<path d="M893.51 152.42L823.47 152.72V204H823.56C822.87 212.24 826.6 220.8 834.78 225.52L1042.18 345.26C1050.33 349.97 1059.34 352.53 1068.42 352.98L1069.47 80.2903L1042.28 66.5303C1042.28 66.5303 1042.21 66.5703 1042.18 66.5903L893.51 152.42Z" fill="#D1D3D4"/>
<path d="M1318.97 203.79V150.59L1246.4 150.9L1100.36 66.5796C1082.36 56.1896 1060.18 56.1896 1042.18 66.5796L893.51 152.41L823.47 152.71V203.99H823.56C822.87 212.23 826.6 220.79 834.78 225.51L1042.18 345.25C1060.18 355.64 1082.36 355.64 1100.36 345.25L1307.76 225.51C1316.01 220.75 1319.73 212.08 1318.96 203.78L1318.97 203.79Z" stroke="#7742A5" stroke-width="5" stroke-miterlimit="10" stroke-linecap="round"/>
<path d="M834.78 133.13L1042.18 13.3902C1060.18 3.00016 1082.36 3.00016 1100.36 13.3902L1307.76 133.13C1322.84 141.84 1322.84 163.61 1307.76 172.32L1100.36 292.06C1082.36 302.45 1060.18 302.45 1042.18 292.06L834.78 172.32C819.7 163.61 819.7 141.84 834.78 133.13Z" fill="white"/>
<path d="M834.78 133.13L1042.18 13.3902C1060.18 3.00016 1082.36 3.00016 1100.36 13.3902L1307.76 133.13C1322.84 141.84 1322.84 163.61 1307.76 172.32L1100.36 292.06C1082.36 302.45 1060.18 302.45 1042.18 292.06L834.78 172.32C819.7 163.61 819.7 141.84 834.78 133.13Z" stroke="#7742A5" stroke-width="5" stroke-miterlimit="10" stroke-linecap="round"/>
<path d="M1226.87 93.0497L1209.75 93.7197C1202.73 85.8897 1193.57 78.5397 1182.23 71.9897C1122.71 37.6297 1025.3 37.6297 965.78 71.9897C954.44 78.5397 945.27 85.8797 938.25 93.7197L921.13 93.0497V134.15H921.14C921 156.91 935.86 179.69 965.77 196.96C1025.29 231.33 1122.7 231.33 1182.22 196.96C1212.12 179.69 1226.99 156.91 1226.85 134.15H1226.86V93.0497H1226.87Z" fill="#FFA630"/>
<path d="M1061.83 46.5205C1026.75 48.1105 992.46 56.5905 965.78 72.0005C954.44 78.5505 945.27 85.8905 938.25 93.7305L921.13 93.0605V134.161H921.14C921 156.921 935.86 179.701 965.77 196.971C992.45 212.371 1026.74 220.851 1061.82 222.451V46.5305L1061.83 46.5205Z" fill="#FC7318"/>
<path d="M1095.08 221.9V47.0703C1087.82 46.4903 1080.5 46.2203 1073.19 46.2403V222.73C1080.51 222.75 1087.82 222.47 1095.08 221.9Z" fill="#FC7318"/>
<path d="M1226.87 93.0497L1209.75 93.7197C1202.73 85.8897 1193.57 78.5397 1182.23 71.9897C1122.71 37.6297 1025.3 37.6297 965.78 71.9897C954.44 78.5397 945.27 85.8797 938.25 93.7197L921.13 93.0497V134.15H921.14C921 156.91 935.86 179.69 965.77 196.96C1025.29 231.33 1122.7 231.33 1182.22 196.96C1212.12 179.69 1226.99 156.91 1226.85 134.15H1226.86V93.0497H1226.87Z" stroke="#7742A5" stroke-width="5" stroke-miterlimit="10" stroke-linecap="round"/>
<path d="M965.78 28.9601C1025.3 -5.40988 1122.71 -5.40988 1182.23 28.9601C1241.75 63.3201 1241.75 119.56 1182.23 153.93C1122.71 188.3 1025.3 188.29 965.78 153.93C906.26 119.57 906.26 63.3301 965.78 28.9601Z" fill="#D9D2A3"/>
<path d="M965.78 28.9601C1025.3 -5.40988 1122.71 -5.40988 1182.23 28.9601C1241.75 63.3201 1241.75 119.56 1182.23 153.93C1122.71 188.3 1025.3 188.29 965.78 153.93C906.26 119.57 906.26 63.3301 965.78 28.9601Z" stroke="#7742A5" stroke-width="5" stroke-miterlimit="10" stroke-linecap="round"/>
<path d="M1073.12 149.22C1049.75 149.22 1026.95 143.93 1009.95 134.11C995.28 125.64 986.08 114.66 983.35 102.36C981.17 92.5402 983.35 82.5802 989.65 73.5802C991.13 71.4602 994.03 70.9502 996.15 72.4302C998.26 73.9102 998.77 76.8102 997.3 78.9302C992.54 85.7402 990.87 93.1402 992.47 100.34C994.59 109.88 1002.46 119 1014.63 126.03C1035.97 138.35 1067.47 142.9 1096.84 137.92C1099.34 137.53 1101.79 139.2 1102.23 141.74C1102.66 144.28 1100.95 146.69 1098.41 147.12C1090.08 148.53 1081.57 149.22 1073.14 149.22H1073.12Z" fill="#7742A5"/>
<path d="M1139.92 89.22C1145.04 92.18 1153.42 92.18 1158.55 89.22C1163.67 86.26 1163.67 81.42 1158.55 78.47C1153.43 75.51 1145.05 75.51 1139.92 78.47C1134.8 81.43 1134.8 86.27 1139.92 89.22Z" fill="#7742A5"/>
<path d="M1061.69 44.3499C1066.81 47.3099 1075.19 47.3099 1080.32 44.3499C1085.44 41.3899 1085.44 36.5499 1080.32 33.5999C1075.2 30.6399 1066.82 30.6399 1061.69 33.5999C1056.57 36.5599 1056.57 41.3999 1061.69 44.3499Z" fill="#7742A5"/>
<path d="M1236.21 495.34C1236.25 494.7 1236.25 494.07 1236.21 493.43V433.44H1229.71C1227.87 431.68 1225.64 430.02 1223.02 428.52L811.49 194.07C793.96 184.01 765.37 184.17 747.95 194.43L598.56 282.45C596.05 283.93 593.91 285.55 592.12 287.26L585.54 286.97V348.76H585.56C585.79 355.31 590.17 361.81 598.71 366.75L1010.33 601.98C1027.84 612.09 1056.38 611.91 1073.76 601.6L1223.27 512.84C1231.46 507.98 1235.76 501.71 1236.19 495.39V495.35L1236.21 495.34Z" fill="#F1F2F2"/>
<path d="M1017.4 340.2L811.49 194.06C793.96 184 765.37 184.16 747.95 194.42L598.56 282.44C596.05 283.92 593.91 285.54 592.12 287.25L585.54 286.96V348.75H585.56C585.79 355.3 590.17 361.8 598.71 366.74L1010.33 601.97C1011.65 602.73 1013.05 603.43 1014.49 604.08L1017.39 340.2H1017.4Z" fill="#D1D3D4"/>
<path d="M1084.81 379.28L1041.5 354.17L1038.6 609.37C1051.24 609.87 1064.2 607.27 1073.77 601.59L1081.91 596.76L1084.81 379.28Z" fill="#D1D3D4"/>
<path d="M1236.21 495.34C1236.25 494.7 1236.25 494.07 1236.21 493.43V433.44H1229.71C1227.87 431.68 1225.64 430.02 1223.02 428.52L811.49 194.07C793.96 184.01 765.37 184.17 747.95 194.43L598.56 282.45C596.05 283.93 593.91 285.55 592.12 287.26L585.54 286.97V348.76H585.56C585.79 355.31 590.17 361.81 598.71 366.75L1010.33 601.98C1027.84 612.09 1056.38 611.91 1073.76 601.6L1223.27 512.84C1231.46 507.98 1235.76 501.71 1236.19 495.39V495.35L1236.21 495.34Z" stroke="#7742A5" stroke-width="5" stroke-miterlimit="10" stroke-linecap="round"/>
<path d="M747.96 179.17C765.37 168.91 793.97 168.75 811.5 178.81L1223.03 413.26C1240.56 423.32 1240.68 440 1223.3 450.31L1073.79 539.07C1056.41 549.39 1027.87 549.56 1010.36 539.45L598.74 304.22C581.24 294.11 581.16 277.45 598.58 267.19L747.97 179.17H747.96Z" fill="url(#paint8_linear_581_6375)"/>
<path d="M747.96 179.17C765.37 168.91 793.97 168.75 811.5 178.81L1223.03 413.26C1240.56 423.32 1240.68 440 1223.3 450.31L1073.79 539.07C1056.41 549.39 1027.87 549.56 1010.36 539.45L598.74 304.22C581.24 294.11 581.16 277.45 598.58 267.19L747.97 179.17H747.96Z" stroke="#7742A5" stroke-width="5" stroke-miterlimit="10" stroke-linecap="round"/>
<path d="M965.93 325.501L965.56 340.751L951.28 348.261L919.48 349.981L919.45 360.001H919.42C919.48 361.211 919.34 362.421 918.93 363.651C917.4 368.261 913.37 372.281 906.84 375.711C897.14 380.811 886.74 383.191 875.65 382.861C864.56 382.531 854.67 379.851 845.97 374.821C837.28 369.801 832.09 362.811 830.41 353.851L830.78 338.601L854 349.391C855.24 356.921 858.79 359.331 864.63 362.711C868.15 364.751 872.06 365.901 876.38 366.151C880.69 366.411 884.77 365.521 888.6 363.511C892.43 361.501 894.16 362.181 893.79 359.491C893.41 356.791 890.91 354.101 886.26 351.411C883.78 349.981 879.46 348.411 873.29 346.691L873.65 331.751C873.65 331.591 873.8 331.471 873.96 331.501L888.12 334.041L916.33 332.671L899.85 322.191L900.19 307.971C900.2 307.461 900.71 307.111 901.19 307.281L917.44 312.941L965.92 325.511L965.93 325.501ZM828.45 344.001L828.4 329.021L813.97 335.271L814.4 336.151C814.4 336.151 814.37 336.151 814.35 336.151C812.91 336.181 811.58 336.431 810.25 336.661L797.77 330.061V346.451L797.86 346.501C798.19 348.091 799.39 349.481 801.47 350.681C804.25 352.281 807.71 353.041 811.87 352.971C816.03 352.901 819.74 352.001 823 350.281C826.26 348.561 828.06 346.571 828.4 344.281C828.41 344.201 828.39 344.121 828.4 344.041L828.45 344.011V344.001ZM958 415.801L970.25 415.441L958.99 423.261C958.85 423.351 958.77 423.511 958.77 423.671L958.41 438.661L978.42 450.231L996.93 414.081L1048.8 412.241L1049.17 396.991L1000.98 395.281L985.25 401.481L1035.64 374.991L1036.01 359.741L1018.78 365.241L921.02 401.571L920.65 416.821L937.51 426.571L958.01 415.791L958 415.801ZM819.12 256.071L772.43 273.621L772.06 288.871C780.65 290.141 786.94 291.931 790.91 294.221C794.88 296.521 797 298.981 797.26 301.611C797.52 304.251 795.58 303.601 791.43 305.781C787.28 307.961 783 308.931 778.56 308.701C774.12 308.471 770.41 307.491 767.4 305.751C764.41 304.021 762.35 304.841 761.26 302.111C760.16 299.381 759.62 297.391 759.64 296.141C759.66 294.891 759.74 293.861 759.85 293.051L735.39 285.871L735.56 295.641C736.07 305.731 737.66 312.191 748.3 318.341C756.62 323.151 766.58 325.621 778.19 325.771C789.81 325.911 800.16 323.581 809.29 318.791C818.42 314.001 822.94 308.601 822.84 302.611L823.21 287.361L815.06 289.531C813.93 288.681 812.73 287.851 811.36 287.061C808.36 285.331 805.31 284.001 802.19 283.071L817.67 274.941L848.69 292.881L866.55 283.491L866.92 268.241L819.12 256.061V256.071Z" fill="#7742A5"/>
<path d="M965.9 326.5L965.55 340.75L951.27 348.26L919.47 349.98L919.44 360H919.41C919.47 361.21 919.33 362.42 918.92 363.65C917.39 368.26 913.36 372.28 906.83 375.71C897.13 380.81 886.73 383.19 875.64 382.86C864.55 382.53 854.66 379.85 845.96 374.82C837.27 369.8 832.08 362.81 830.4 353.85L831.02 339.79L853.99 349.39C855.23 356.92 858.78 359.33 864.62 362.71C868.14 364.75 872.05 365.9 876.37 366.15C880.68 366.41 884.76 365.52 888.59 363.51C892.42 361.5 894.15 362.18 893.78 359.49C893.4 356.79 890.9 354.1 886.25 351.41C883.77 349.98 879.45 348.41 873.28 346.69L874.03 333.06L888.11 334.03L916.32 332.66L899.84 322.18L900.76 308.19C900.79 307.73 901.25 307.43 901.68 307.57L917.43 312.92L964.94 325.24C965.51 325.39 965.9 325.91 965.89 326.49L965.9 326.5ZM828.45 344L828.41 329.29C828.41 329.16 828.28 329.08 828.16 329.13L813.98 335.27L814.41 336.15C814.41 336.15 814.38 336.15 814.36 336.15C812.92 336.18 811.59 336.43 810.26 336.66L797.78 330.06V346.45C798.11 348.04 799.41 349.48 801.49 350.68C804.27 352.28 807.73 353.04 811.89 352.97C816.05 352.9 819.76 352 823.02 350.28C826.28 348.56 828.08 346.57 828.42 344.28C828.43 344.2 828.41 344.12 828.42 344.04L828.47 344.01L828.45 344ZM958 415.8L970.25 415.44L959.77 422.72C959.14 423.16 958.76 423.86 958.74 424.63L958.4 438.67L978.41 450.24L996.92 414.09L1047.67 412.29C1048.3 412.27 1048.8 411.76 1048.81 411.13L1049.13 398.01C1049.14 397.45 1048.7 396.98 1048.14 396.96L1000.96 395.28L985.23 401.48L1035.62 374.99L1035.55 360.71C1035.55 360.56 1035.41 360.46 1035.27 360.5L1018.76 365.24L921 401.57L920.63 416.82L937.49 426.57L957.99 415.79L958 415.8ZM819.12 256.07L772.43 273.62L772.06 288.87C780.65 290.14 786.94 291.93 790.91 294.22C794.88 296.52 797 298.98 797.26 301.61C797.52 304.25 795.58 303.6 791.43 305.78C787.28 307.96 783 308.93 778.56 308.7C774.12 308.47 770.41 307.49 767.4 305.75C764.41 304.02 762.35 304.84 761.26 302.11C760.16 299.38 759.62 297.39 759.64 296.14C759.66 294.89 759.74 293.86 759.85 293.05L735.39 285.87L735.56 295.64C736.07 305.73 737.66 312.19 748.3 318.34C756.62 323.15 766.58 325.62 778.19 325.77C789.81 325.91 800.16 323.58 809.29 318.79C818.42 314 822.94 308.6 822.84 302.61L823.15 289.41L815.06 289.53C813.93 288.68 812.73 287.85 811.36 287.06C808.36 285.33 805.31 284 802.19 283.07L817.67 274.94L848.69 292.88L866.55 283.49L866.89 269.51C866.91 268.77 866.41 268.11 865.69 267.93L819.12 256.07Z" stroke="#7742A5" stroke-width="5" stroke-miterlimit="10" stroke-linecap="round"/>
<path d="M866.92 268.241L849.06 277.631L818.04 259.691L802.56 267.821C805.67 268.751 808.73 270.071 811.73 271.811C819.29 276.181 823.12 281.371 823.21 287.361C823.31 293.351 818.78 298.751 809.66 303.541C800.53 308.331 790.18 310.661 778.56 310.521C766.95 310.381 756.99 307.901 748.67 303.091C738.03 296.941 733.78 289.371 735.93 280.391L760.22 277.791C760.1 278.601 760.03 279.631 760.01 280.881C759.99 282.131 760.53 284.131 761.63 286.851C762.73 289.581 764.78 291.811 767.77 293.541C770.77 295.271 774.49 296.261 778.93 296.491C783.37 296.721 787.66 295.751 791.8 293.571C795.95 291.391 797.89 288.991 797.63 286.351C797.37 283.721 795.25 281.251 791.28 278.961C787.31 276.661 781.02 274.881 772.43 273.611L774.38 264.521L819.48 240.811L866.91 268.231L866.92 268.241Z" fill="white"/>
<path d="M797.82 329.58C798.16 327.3 799.96 325.29 803.22 323.58C806.48 321.86 810.2 320.97 814.35 320.89C818.51 320.82 821.97 321.58 824.75 323.18C827.53 324.78 828.74 326.73 828.4 329.01C828.06 331.3 826.26 333.3 823 335.01C819.74 336.73 816.03 337.62 811.87 337.7C807.71 337.78 804.25 337.01 801.47 335.41C798.69 333.81 797.48 331.87 797.82 329.57V329.58Z" fill="white"/>
<path d="M900.23 306.931L917.82 297.681L965.93 325.501L951.65 333.011L914.02 335.051C919.08 339.341 920.84 343.791 919.3 348.401C917.77 353.011 913.74 357.031 907.21 360.461C897.51 365.561 887.11 367.941 876.02 367.611C864.93 367.281 855.04 364.601 846.34 359.571C837.66 354.551 832.46 347.561 830.78 338.601L854.37 334.141C855.61 341.671 859.16 347.131 865 350.511C868.52 352.551 872.43 353.701 876.75 353.951C881.06 354.211 885.14 353.321 888.97 351.311C892.81 349.291 894.53 346.941 894.16 344.241C893.78 341.541 891.28 338.851 886.63 336.161C884.15 334.731 879.83 333.161 873.66 331.441L888.87 323.451L924.83 321.181L900.22 306.951L900.23 306.931Z" fill="white"/>
<path d="M937.87 411.32L921.01 401.57L1019.14 349.99L1036 359.74L985.61 386.23L1027.91 384.7L1049.15 396.98L997.28 398.82L978.77 434.97L960.52 424.41C959.54 423.84 959.17 422.6 959.69 421.59L970.62 400.17L958.37 400.53L937.87 411.31V411.32Z" fill="white"/>
<path d="M866.61 268.401L849.06 277.631L818.04 259.691L802.56 267.821C805.67 268.751 808.73 270.071 811.73 271.811C819.29 276.181 823.12 281.371 823.21 287.361C823.31 293.351 818.78 298.751 809.66 303.541C800.53 308.331 790.18 310.661 778.56 310.521C766.95 310.381 756.99 307.901 748.67 303.091C738.03 296.941 733.78 289.371 735.93 280.391L759.08 277.921C759.65 277.861 760.15 278.331 760.1 278.901C760.05 279.481 760.02 280.141 760.01 280.881C759.99 282.131 760.53 284.131 761.63 286.851C762.73 289.581 764.78 291.811 767.77 293.541C770.77 295.271 774.49 296.261 778.93 296.491C783.37 296.721 787.66 295.751 791.8 293.571C795.95 291.391 797.89 288.991 797.63 286.351C797.37 283.721 795.25 281.251 791.28 278.961C787.31 276.661 781.02 274.881 772.43 273.611L774.38 264.521L819.48 240.811L866.61 268.061C866.74 268.131 866.74 268.321 866.61 268.391V268.401ZM797.82 329.581C798.16 327.301 799.96 325.291 803.22 323.581C806.48 321.861 810.2 320.971 814.35 320.891C818.51 320.821 821.97 321.581 824.75 323.181C827.53 324.781 828.74 326.731 828.4 329.011C828.06 331.301 826.26 333.301 823 335.011C819.74 336.731 816.03 337.621 811.87 337.701C807.71 337.781 804.25 337.011 801.47 335.411C798.69 333.811 797.48 331.871 797.82 329.571V329.581ZM900.86 306.601L917.82 297.681L965.78 325.411C965.84 325.451 965.84 325.541 965.78 325.571L951.64 333.001L914.01 335.041C919.07 339.331 920.83 343.781 919.29 348.391C917.76 353.001 913.73 357.021 907.2 360.451C897.5 365.551 887.1 367.931 876.01 367.601C864.92 367.271 855.03 364.591 846.33 359.561C837.82 354.641 832.66 347.821 830.88 339.121C830.82 338.831 831.01 338.541 831.31 338.491L854.37 334.131C855.61 341.661 859.16 347.121 865 350.501C868.52 352.541 872.43 353.691 876.75 353.941C881.06 354.201 885.14 353.311 888.97 351.301C892.81 349.281 894.53 346.931 894.16 344.231C893.78 341.531 891.28 338.841 886.63 336.151C884.28 334.791 880.27 333.311 874.59 331.691C874.26 331.601 874.15 329.901 874.46 329.741L888.88 323.441L924.84 321.171L900.84 307.291C900.57 307.141 900.58 306.751 900.85 306.611L900.86 306.601ZM937.87 411.321L921.24 401.701C921.14 401.641 921.14 401.501 921.24 401.441L1019.14 349.981L1035.49 359.431C1035.71 359.561 1035.71 359.891 1035.48 360.011L985.62 386.221L1027.92 384.691L1048.96 396.851C1049.02 396.881 1049 396.971 1048.93 396.981L997.3 398.811L978.79 434.961L959.21 423.641C958.97 423.501 958.88 423.201 959.01 422.961L970.63 400.181L958.38 400.541L937.88 411.321H937.87Z" stroke="#7742A5" stroke-width="5" stroke-miterlimit="10" stroke-linecap="round"/>
<path d="M2061.82 945.45C2062.26 945.14 2062.72 944.86 2063.21 944.64C2065.58 943.53 2068.46 943.49 2071.04 944.98L2105.63 964.95C2111.24 968.19 2114.7 974.17 2114.7 980.65C2114.7 983.78 2113.08 986.34 2110.77 987.81L2054.66 1020.68L2005.15 978.72L2061.83 945.45H2061.82Z" fill="#F1F2F2"/>
<path d="M2054.66 1020.67L2043.85 1011.51L2112.44 971.911C2113.89 974.541 2114.69 977.531 2114.69 980.641C2114.69 983.771 2113.07 986.331 2110.76 987.801L2054.65 1020.67H2054.66Z" fill="#D1D3D4"/>
<path d="M2041.29 1009.34L2037.92 1006.49L2107.29 966.041C2108.62 967.021 2109.8 968.161 2110.8 969.431L2041.29 1009.34Z" fill="#D1D3D4"/>
<path d="M2063.21 944.631C2065.58 943.521 2068.46 943.481 2071.04 944.971L2105.63 964.94C2111.24 968.18 2114.7 974.161 2114.7 980.641C2114.7 983.771 2113.08 986.331 2110.77 987.801L2055.73 1020.04C2055.09 1020.41 2054.29 1020.34 2053.73 1019.87L2006.07 979.481C2005.63 979.101 2005.68 978.401 2006.18 978.111C2013.91 973.571 2062.77 944.841 2063.22 944.631H2063.21Z" stroke="#7742A5" stroke-width="5" stroke-miterlimit="10" stroke-linecap="round"/>
<path d="M2014.65 978.031L2049.24 998.001C2054.85 1001.24 2058.31 1007.22 2058.31 1013.7C2058.31 1020.24 2051.23 1024.32 2045.57 1021.05L2010.98 1001.08C2005.37 997.841 2001.91 991.861 2001.91 985.381C2001.91 978.841 2008.99 974.761 2014.65 978.031Z" fill="#7742A5"/>
<path d="M2014.65 978.031L2049.24 998.001C2054.85 1001.24 2058.31 1007.22 2058.31 1013.7C2058.31 1020.24 2051.23 1024.32 2045.57 1021.05L2010.98 1001.08C2005.37 997.841 2001.91 991.861 2001.91 985.381C2001.91 978.841 2008.99 974.761 2014.65 978.031Z" stroke="#7742A5" stroke-width="5" stroke-miterlimit="10" stroke-linecap="round"/>
<path d="M2026.07 1002.72L1753.67 1163.91" stroke="#7742A5" stroke-width="20" stroke-miterlimit="10" stroke-linecap="round"/>
<path d="M1870.97 1285.71V1200.1L1800.04 1200.41L1405.23 1264.27C1387.63 1254.11 1365.95 1254.11 1348.36 1264.27L1203.04 1348.17L1134.57 1348.46V1432.18H1134.66C1133.99 1440.23 1137.64 1448.6 1145.63 1453.21L1348.36 1570.26C1365.96 1580.42 1387.64 1580.42 1405.23 1570.26L1860.02 1306.94C1868.08 1302.29 1871.72 1293.82 1870.97 1285.7V1285.71Z" fill="#F1F2F2"/>
<path d="M1379.46 1577.81C1383.01 1577.64 1386.55 1577.15 1390.03 1576.31V1264.72H1379.46V1577.8V1577.81Z" fill="#D1D3D4"/>
<path d="M1203.04 1348.16L1134.57 1348.45V1432.17H1134.66C1133.99 1440.22 1137.64 1448.59 1145.63 1453.2L1348.36 1570.25C1356.33 1574.85 1365.13 1577.36 1374.01 1577.79L1375.04 1277.64L1348.46 1264.19C1348.46 1264.19 1348.39 1264.23 1348.36 1264.24L1203.04 1348.14V1348.16Z" fill="#D1D3D4"/>
<path d="M1870.97 1285.71V1200.1L1800.04 1200.41L1405.23 1264.27C1387.63 1254.11 1365.95 1254.11 1348.36 1264.27L1203.04 1348.17L1134.57 1348.46V1432.18H1134.66C1133.99 1440.23 1137.64 1448.6 1145.63 1453.21L1348.36 1570.26C1365.96 1580.42 1387.64 1580.42 1405.23 1570.26L1860.02 1306.94C1868.08 1302.29 1871.72 1293.82 1870.97 1285.7V1285.71Z" stroke="#7742A5" stroke-width="5" stroke-miterlimit="10" stroke-linecap="round"/>
<path d="M1145.63 1329.31L1600.42 1065.99C1618.02 1055.83 1639.7 1055.83 1657.29 1065.99L1860.02 1183.04C1874.76 1191.55 1874.76 1212.83 1860.02 1221.34L1405.23 1484.66C1387.63 1494.82 1365.95 1494.82 1348.36 1484.66L1145.63 1367.61C1130.89 1359.1 1130.89 1337.82 1145.63 1329.31Z" fill="white"/>
<path d="M1197.66 1333.62L1606.82 1096.64C1620.46 1088.77 1637.26 1088.77 1650.89 1096.64L1807.99 1187.34C1819.42 1193.94 1819.42 1210.43 1807.99 1217.02L1398.83 1454C1385.19 1461.87 1368.39 1461.87 1354.76 1454L1197.66 1363.3C1186.23 1356.7 1186.23 1340.21 1197.66 1333.62Z" stroke="#7742A5" stroke-width="5" stroke-miterlimit="10" stroke-linecap="round"/>
<path d="M1145.63 1329.31L1600.42 1065.99C1618.02 1055.83 1639.7 1055.83 1657.29 1065.99L1860.02 1183.04C1874.76 1191.55 1874.76 1212.83 1860.02 1221.34L1405.23 1484.66C1387.63 1494.82 1365.95 1494.82 1348.36 1484.66L1145.63 1367.61C1130.89 1359.1 1130.89 1337.82 1145.63 1329.31Z" stroke="#7742A5" stroke-width="5" stroke-miterlimit="10" stroke-linecap="round"/>
<path d="M1213.02 1437.09C1213.46 1436.78 1213.92 1436.5 1214.41 1436.28C1216.78 1435.17 1219.66 1435.13 1222.24 1436.62L1256.83 1456.59C1262.44 1459.83 1265.89 1465.81 1265.89 1472.29C1265.89 1475.42 1264.27 1477.98 1261.96 1479.45L1205.85 1512.32L1156.34 1470.36L1213.02 1437.09Z" fill="#F1F2F2"/>
<path d="M1205.85 1512.31L1195.04 1503.15L1263.63 1463.55C1265.08 1466.18 1265.88 1469.17 1265.88 1472.28C1265.88 1475.41 1264.26 1477.97 1261.95 1479.44L1205.84 1512.31H1205.85Z" fill="#D1D3D4"/>
<path d="M1192.49 1500.98L1189.12 1498.13L1258.49 1457.68C1259.82 1458.66 1261 1459.8 1262 1461.07L1192.49 1500.98Z" fill="#D1D3D4"/>
<path d="M1214.41 1436.27C1216.78 1435.16 1219.66 1435.12 1222.24 1436.61L1256.83 1456.58C1262.44 1459.82 1265.89 1465.8 1265.89 1472.28C1265.89 1475.41 1264.27 1477.97 1261.96 1479.44L1206.92 1511.68C1206.28 1512.05 1205.48 1511.98 1204.92 1511.51L1157.26 1471.12C1156.82 1470.74 1156.87 1470.04 1157.37 1469.75C1165.1 1465.21 1213.96 1436.48 1214.41 1436.27Z" stroke="#7742A5" stroke-width="5" stroke-miterlimit="10" stroke-linecap="round"/>
<path d="M1165.85 1469.67L1200.44 1489.64C1206.05 1492.88 1209.5 1498.86 1209.5 1505.34C1209.5 1511.88 1202.42 1515.96 1196.76 1512.69L1162.17 1492.72C1156.56 1489.48 1153.11 1483.5 1153.11 1477.02C1153.11 1470.48 1160.19 1466.4 1165.85 1469.67Z" fill="#7742A5"/>
<path d="M1165.85 1469.67L1200.44 1489.64C1206.05 1492.88 1209.5 1498.86 1209.5 1505.34C1209.5 1511.88 1202.42 1515.96 1196.76 1512.69L1162.17 1492.72C1156.56 1489.48 1153.11 1483.5 1153.11 1477.02C1153.11 1470.48 1160.19 1466.4 1165.85 1469.67Z" stroke="#7742A5" stroke-width="5" stroke-miterlimit="10" stroke-linecap="round"/>
<path d="M666.05 1128.11C666.49 1127.8 666.95 1127.52 667.44 1127.3C669.81 1126.19 672.69 1126.15 675.27 1127.64L709.86 1147.61C715.47 1150.85 718.93 1156.83 718.93 1163.31C718.93 1166.44 717.31 1169 715 1170.47L658.89 1203.34L609.38 1161.38L666.06 1128.11H666.05Z" fill="#F1F2F2"/>
<path d="M658.89 1203.33L648.08 1194.17L716.67 1154.57C718.12 1157.2 718.92 1160.19 718.92 1163.3C718.92 1166.43 717.3 1168.99 714.99 1170.46L658.88 1203.33H658.89Z" fill="#D1D3D4"/>
<path d="M645.52 1192.01L642.15 1189.16L711.52 1148.71C712.85 1149.69 714.03 1150.83 715.03 1152.1L645.52 1192.01Z" fill="#D1D3D4"/>
<path d="M667.44 1127.3C669.81 1126.19 672.69 1126.15 675.27 1127.64L709.86 1147.61C715.47 1150.85 718.93 1156.83 718.93 1163.31C718.93 1166.44 717.31 1169 715 1170.47L659.96 1202.71C659.32 1203.08 658.52 1203.01 657.96 1202.54L610.3 1162.15C609.86 1161.77 609.91 1161.07 610.41 1160.78C618.14 1156.24 667 1127.51 667.45 1127.3H667.44Z" stroke="#7742A5" stroke-width="5" stroke-miterlimit="10" stroke-linecap="round"/>
<path d="M618.88 1160.69L653.47 1180.66C659.08 1183.9 662.53 1189.88 662.53 1196.36C662.53 1202.9 655.45 1206.98 649.79 1203.71L615.2 1183.74C609.59 1180.5 606.14 1174.52 606.14 1168.04C606.14 1161.5 613.22 1157.42 618.88 1160.69Z" fill="#7742A5"/>
<path d="M618.88 1160.69L653.47 1180.66C659.08 1183.9 662.53 1189.88 662.53 1196.36C662.53 1202.9 655.45 1206.98 649.79 1203.71L615.2 1183.74C609.59 1180.5 606.14 1174.52 606.14 1168.04C606.14 1161.5 613.22 1157.42 618.88 1160.69Z" stroke="#7742A5" stroke-width="5" stroke-miterlimit="10" stroke-linecap="round"/>
<path d="M636.89 1189.28L597.53 1209.83C579.01 1219.5 578.46 1245.8 596.55 1256.24L1059.35 1523.44C1080.66 1535.74 1106.91 1535.74 1128.22 1523.44L1181.31 1492.79" stroke="#7742A5" stroke-width="20" stroke-miterlimit="10" stroke-linecap="round"/>
<path d="M2411.97 784.96V617.18C2411.97 597.95 2401.71 580.18 2385.06 570.56L2131.16 423.97C2121.82 418.58 2111.31 419.25 2103.14 423.97L2086.94 434.47L2090.07 440.91C2089.45 443.23 2089.11 445.68 2089.11 448.25V617.69C2089.11 637.02 2099.47 654.86 2116.25 664.44L2370.04 809.3C2372.56 810.74 2375.16 811.72 2377.78 812.32L2384.48 817.92L2401.92 807.8L2403.72 806.58C2410.09 801.58 2411.97 794.19 2411.97 784.95V784.96Z" fill="#F1F2F2"/>
<path d="M2386.15 571.221L2370.27 580.391L2170.78 695.571L2209.58 717.721L2409.93 602.541C2406.28 589.631 2397.88 578.371 2386.15 571.221Z" fill="#D1D3D4"/>
<path d="M2377.78 812.331L2384.48 817.931L2401.92 807.811L2403.72 806.591C2410.09 801.591 2411.97 794.201 2411.97 784.961V621.791L2236.72 722.971V733.201L2370.04 809.301C2372.56 810.741 2375.16 811.721 2377.78 812.321V812.331Z" fill="#D1D3D4"/>
<path d="M2411.97 784.96V617.18C2411.97 597.95 2401.71 580.18 2385.06 570.56L2131.16 423.97C2121.82 418.58 2111.31 419.25 2103.14 423.97L2086.94 434.47L2090.07 440.91C2089.45 443.23 2089.11 445.68 2089.11 448.25V617.69C2089.11 637.02 2099.47 654.86 2116.25 664.44L2370.04 809.3C2372.56 810.74 2375.16 811.72 2377.78 812.32L2384.48 817.92L2401.92 807.8L2403.72 806.58C2410.09 801.58 2411.97 794.19 2411.97 784.95V784.96Z" stroke="#7742A5" stroke-width="5" stroke-miterlimit="10" stroke-linecap="round"/>
<path d="M2168.92 491.5H2145.06V818.9C2145.02 820.7 2146.18 822.51 2148.54 823.87C2153.19 826.55 2160.79 826.55 2165.43 823.87C2167.8 822.5 2168.96 820.7 2168.91 818.9V491.5H2168.92Z" fill="white"/>
<path d="M2159.19 824.84C2159.19 825.15 2159.21 825.45 2159.27 825.76C2161.54 825.51 2163.7 824.88 2165.44 823.87C2167.81 822.5 2168.97 820.7 2168.92 818.9V491.5H2159.18V824.84H2159.19Z" fill="#D1D3D4"/>
<path d="M2168.92 491.5H2145.06V818.9C2145.02 820.7 2146.18 822.51 2148.54 823.87C2153.19 826.55 2160.79 826.55 2165.43 823.87C2167.8 822.5 2168.96 820.7 2168.91 818.9V491.5H2168.92Z" stroke="#7742A5" stroke-width="5" stroke-miterlimit="10" stroke-linecap="round"/>
<path d="M2311.43 574.601H2287.57V902.001C2287.53 903.801 2288.69 905.611 2291.05 906.971C2295.7 909.651 2303.3 909.651 2307.94 906.971C2310.31 905.601 2311.47 903.801 2311.42 902.001V574.601H2311.43Z" fill="white"/>
<path d="M2301.69 907.941C2301.69 908.251 2301.71 908.561 2301.77 908.861C2304.04 908.611 2306.2 907.981 2307.94 906.971C2310.31 905.601 2311.47 903.801 2311.42 902.001V574.601H2301.68V907.941H2301.69Z" fill="#D1D3D4"/>
<path d="M2311.43 574.601H2287.57V902.001C2287.53 903.801 2288.69 905.611 2291.05 906.971C2295.7 909.651 2303.3 909.651 2307.94 906.971C2310.31 905.601 2311.47 903.801 2311.42 902.001V574.601H2311.43Z" stroke="#7742A5" stroke-width="5" stroke-miterlimit="10" stroke-linecap="round"/>
<path d="M2148.55 627.56C2153.2 630.24 2160.8 630.24 2165.44 627.56C2170.08 624.88 2170.08 620.49 2165.44 617.81C2160.79 615.13 2153.19 615.13 2148.55 617.81C2143.91 620.49 2143.91 624.88 2148.55 627.56Z" fill="#9172F6"/>
<path d="M2148.55 627.56C2153.2 630.24 2160.8 630.24 2165.44 627.56C2170.08 624.88 2170.08 620.49 2165.44 617.81C2160.79 615.13 2153.19 615.13 2148.55 617.81C2143.91 620.49 2143.91 624.88 2148.55 627.56Z" stroke="#7742A5" stroke-width="5" stroke-miterlimit="10" stroke-linecap="round"/>
<path d="M2116.41 433.45L2370.31 580.04C2386.96 589.66 2397.22 607.43 2397.22 626.66V794.44C2397.22 815.96 2373.98 829.45 2355.29 818.79L2101.5 673.93C2084.72 664.35 2074.36 646.51 2074.36 627.18V457.74C2074.36 436.16 2097.72 422.67 2116.41 433.46V433.45Z" fill="white"/>
<path d="M2116.41 433.45L2370.31 580.04C2386.96 589.66 2397.22 607.43 2397.22 626.66V794.44C2397.22 815.96 2373.98 829.45 2355.29 818.79L2101.5 673.93C2084.72 664.35 2074.36 646.51 2074.36 627.18V457.74C2074.36 436.16 2097.72 422.67 2116.41 433.46V433.45Z" stroke="#7742A5" stroke-width="5" stroke-miterlimit="10" stroke-linecap="round"/>
<path d="M2189.41 508.121L2120.03 467.431C2110.55 461.871 2098.63 468.74 2098.69 479.73L2099.11 559.801C2099.17 571.461 2105.43 582.221 2115.53 588.031L2184.37 627.66C2193.82 633.1 2205.61 626.281 2205.61 615.381V536.391C2205.61 524.761 2199.45 514.001 2189.42 508.121H2189.41Z" stroke="#7742A5" stroke-width="5" stroke-miterlimit="10" stroke-linecap="round" stroke-dasharray="15 15"/>
<path d="M2252.4 589.006C2251.91 588.724 2251.47 588.389 2251.09 588.002C2250.72 587.609 2250.46 587.227 2250.3 586.859L2251.4 586.063C2251.56 586.402 2251.78 586.735 2252.06 587.063C2252.36 587.388 2252.69 587.657 2253.06 587.868C2253.34 588.03 2253.59 588.132 2253.79 588.177C2253.99 588.219 2254.17 588.214 2254.31 588.161C2254.45 588.109 2254.55 588.018 2254.63 587.889C2254.72 587.725 2254.73 587.559 2254.66 587.391C2254.58 587.218 2254.46 587.041 2254.28 586.862C2254.11 586.677 2253.91 586.484 2253.68 586.283C2253.46 586.08 2253.25 585.864 2253.04 585.634C2252.83 585.408 2252.66 585.17 2252.52 584.92C2252.39 584.67 2252.31 584.401 2252.3 584.113C2252.29 583.828 2252.38 583.521 2252.57 583.193C2252.77 582.842 2253.04 582.576 2253.4 582.396C2253.76 582.214 2254.18 582.147 2254.66 582.195C2255.14 582.241 2255.68 582.43 2256.26 582.763C2256.64 582.984 2257 583.249 2257.32 583.558C2257.64 583.861 2257.9 584.185 2258.08 584.531L2257.02 585.361C2256.83 585.032 2256.61 584.748 2256.37 584.507C2256.13 584.26 2255.87 584.058 2255.59 583.9C2255.32 583.743 2255.07 583.645 2254.86 583.609C2254.65 583.573 2254.47 583.586 2254.34 583.648C2254.2 583.704 2254.1 583.799 2254.02 583.934C2253.93 584.092 2253.92 584.258 2253.99 584.431C2254.07 584.599 2254.19 584.773 2254.37 584.952C2254.55 585.131 2254.75 585.323 2254.97 585.526C2255.19 585.732 2255.41 585.945 2255.61 586.166C2255.83 586.39 2256 586.627 2256.14 586.877C2256.28 587.126 2256.35 587.394 2256.36 587.679C2256.37 587.967 2256.29 588.272 2256.1 588.594C2255.91 588.94 2255.63 589.201 2255.27 589.378C2254.91 589.554 2254.49 589.619 2254 589.573C2253.52 589.531 2252.99 589.342 2252.4 589.006ZM2256.04 590.954L2259.57 584.801L2260.75 585.475L2260.88 591.319L2260.25 590.961L2265.32 588.094L2266.49 588.764L2262.98 594.928L2261.64 594.162L2263.99 590.052L2264.23 590.193L2260.2 592.469L2259.55 592.102L2259.43 587.443L2259.73 587.614L2257.38 591.72L2256.04 590.954ZM2264.44 595.764L2267.97 589.611L2269.14 590.286L2269.27 596.129L2268.65 595.772L2273.71 592.905L2274.88 593.575L2271.38 599.738L2270.04 598.973L2272.38 594.862L2272.63 595.003L2268.59 597.28L2267.95 596.912L2267.83 592.253L2268.13 592.425L2265.78 596.53L2264.44 595.764Z" fill="#7742A5"/>
<path d="M2101.99 615.8L2372.21 772.7" stroke="#7742A5" stroke-width="5" stroke-miterlimit="10" stroke-linecap="round"/>
<path d="M2100.68 641.4L2228.5 715.62" stroke="#7742A5" stroke-width="5" stroke-miterlimit="10" stroke-linecap="round"/>
<path d="M2250.06 605.11L2350.1 665.12C2354.97 668.04 2357.95 673.3 2357.95 678.98V694.34C2357.95 699.87 2351.9 703.27 2347.17 700.4L2247.08 639.57C2242.26 636.64 2239.31 631.4 2239.31 625.76V611.19C2239.31 605.68 2245.32 602.27 2250.05 605.11H2250.06Z" fill="#D9D2A3"/>
<path d="M2152.79 506.51C2133.96 495.64 2118.56 504.53 2118.56 526.27C2118.56 548.01 2133.96 574.69 2152.79 585.56C2171.62 596.43 2187.02 587.54 2187.02 565.8C2187.02 544.06 2171.62 517.38 2152.79 506.51Z" fill="#FFE019"/>
<path d="M2152.79 506.51C2133.96 495.64 2118.56 504.53 2118.56 526.27C2118.56 548.01 2133.96 574.69 2152.79 585.56C2171.62 596.43 2187.02 587.54 2187.02 565.8C2187.02 544.06 2171.62 517.38 2152.79 506.51Z" stroke="#7742A5" stroke-width="5" stroke-miterlimit="10" stroke-linecap="round"/>
<path d="M2136.55 543.86C2136.55 554.7 2144.23 568.01 2153.62 573.43C2163.01 578.85 2170.69 574.42 2170.69 563.57" stroke="#7742A5" stroke-width="5" stroke-miterlimit="10" stroke-linecap="round"/>
<path d="M2164.23 538.2C2162.23 536.39 2160.59 537.87 2160.59 541.49C2160.59 545.11 2162.23 549.55 2164.23 551.36C2166.23 553.17 2167.87 551.69 2167.87 548.07C2167.87 544.45 2166.23 540.01 2164.23 538.2Z" fill="#7742A5"/>
<path d="M2136.99 522.51C2134.99 520.7 2133.35 522.18 2133.35 525.8C2133.35 529.42 2134.99 533.86 2136.99 535.67C2138.99 537.48 2140.63 536 2140.63 532.38C2140.63 528.76 2138.99 524.32 2136.99 522.51Z" fill="#7742A5"/>
<path d="M1240.81 1354.54L1232.59 1359.28L1225.8 1355.31L1248.17 1342.41L1254.96 1346.38L1246.74 1351.12L1275.97 1368.2L1270.03 1371.63L1240.81 1354.55V1354.54Z" fill="#7742A5"/>
<path d="M1270.69 1338.62L1278.1 1342.95C1277.57 1343.19 1277.15 1343.38 1276.71 1343.63C1273.56 1345.45 1273.88 1348.07 1279.18 1351.17L1292.25 1358.81L1286.53 1362.11L1258.85 1345.93L1264.31 1342.78L1267.96 1344.91C1266.68 1342.54 1267.64 1340.38 1270.68 1338.62H1270.69Z" fill="#7742A5"/>
<path d="M1309.65 1335.33L1294.72 1343.94C1298.72 1345.64 1302.92 1345.67 1305.92 1343.94C1308.01 1342.73 1308.64 1341.36 1308.2 1339.52L1315.87 1340.47C1316.97 1343.24 1315.76 1345.73 1312.2 1347.78C1305.38 1351.71 1294.92 1350.75 1286.69 1345.94C1278.41 1341.1 1276.95 1335.01 1282.96 1331.54C1288.75 1328.2 1298.68 1328.81 1307.58 1334.01C1308.2 1334.37 1309 1334.93 1309.63 1335.34L1309.65 1335.33ZM1289.97 1341.24L1299.69 1335.64C1295.79 1333.83 1291.65 1333.58 1289.09 1335.06C1286.49 1336.56 1286.83 1338.93 1289.98 1341.24H1289.97Z" fill="#7742A5"/>
<path d="M1329.47 1318.94L1345.32 1328.2L1339.6 1331.5L1324.99 1322.96C1320.51 1320.34 1316.99 1319.99 1314.46 1321.45C1311.71 1323.04 1312.1 1325.56 1317.19 1328.54L1330.87 1336.54L1325.15 1339.84L1297.47 1323.66L1302.93 1320.51L1306.17 1322.41C1305.34 1320.14 1306.37 1318.05 1309.04 1316.51C1313.7 1313.82 1321.03 1314.02 1329.46 1318.95L1329.47 1318.94Z" fill="#7742A5"/>
<path d="M1332.62 1291.2L1370.8 1313.51L1365.33 1316.66L1362.14 1314.8C1363.13 1317.04 1362.22 1318.94 1359.58 1320.46C1354 1323.68 1344.16 1322.9 1335.46 1317.82C1326.77 1312.74 1325.5 1307.02 1331.07 1303.8C1333.49 1302.4 1336.62 1301.85 1340.32 1302.35L1326.89 1294.5L1332.61 1291.2H1332.62ZM1351.35 1308.66C1346.57 1305.86 1341.48 1305.45 1338.66 1307.08C1335.8 1308.73 1336.48 1311.68 1341.27 1314.48C1346.06 1317.28 1351.14 1317.69 1354 1316.04C1356.82 1314.41 1356.14 1311.46 1351.36 1308.66H1351.35Z" fill="#7742A5"/>
<path d="M1400.57 1284.93C1406.8 1288.57 1406.88 1292.7 1400.13 1296.6L1386.85 1304.26L1350.84 1283.21L1363.38 1275.98C1369.8 1272.28 1376.85 1272.57 1382.46 1275.85C1386.06 1277.96 1387.52 1280.34 1386.97 1282.45C1391.12 1281.55 1396.04 1282.3 1400.56 1284.95L1400.57 1284.93ZM1363.02 1283.47L1371.51 1288.43L1377.41 1285.02C1380.31 1283.35 1380.44 1281.6 1377.61 1279.94C1374.78 1278.29 1371.81 1278.38 1368.92 1280.05L1363.02 1283.46V1283.47ZM1393.72 1287.87C1390.68 1286.1 1387.59 1286.21 1384.51 1287.98L1377.58 1291.98L1386.48 1297.18L1393.41 1293.18C1396.49 1291.4 1396.8 1289.67 1393.72 1287.87Z" fill="#7742A5"/>
<path d="M1406.7 1260.67L1434.38 1276.85L1428.95 1279.98L1425.66 1278.06C1426.57 1280.34 1425.66 1282.36 1423.24 1283.76C1418.29 1286.61 1410.9 1286.34 1402.35 1281.35L1386.71 1272.21L1392.43 1268.91L1406.89 1277.36C1411.52 1280.07 1415.04 1280.42 1417.57 1278.96C1420.21 1277.44 1419.75 1274.95 1414.66 1271.98L1400.97 1263.98L1406.69 1260.68L1406.7 1260.67Z" fill="#7742A5"/>
<path d="M1402.98 1253.14C1400.46 1251.67 1399.93 1249.7 1402.06 1248.47C1404.19 1247.24 1407.47 1247.5 1409.94 1248.94C1412.62 1250.5 1413.14 1252.47 1411.01 1253.7C1408.88 1254.93 1405.5 1254.61 1402.98 1253.14ZM1412.01 1257.61L1417.73 1254.31L1445.41 1270.49L1439.69 1273.79L1412.01 1257.61Z" fill="#7742A5"/>
<path d="M1412.55 1245.11L1418.27 1241.81L1456.45 1264.12L1450.73 1267.42L1412.55 1245.11Z" fill="#7742A5"/>
<path d="M1443.68 1227.15L1481.85 1249.46L1476.39 1252.61L1473.2 1250.75C1474.19 1252.99 1473.28 1254.88 1470.64 1256.41C1465.06 1259.63 1455.22 1258.85 1446.52 1253.77C1437.83 1248.69 1436.56 1242.97 1442.13 1239.75C1444.55 1238.35 1447.68 1237.8 1451.38 1238.3L1437.95 1230.45L1443.67 1227.15H1443.68ZM1462.41 1244.61C1457.63 1241.81 1452.54 1241.4 1449.72 1243.03C1446.86 1244.68 1447.54 1247.63 1452.33 1250.43C1457.11 1253.23 1462.2 1253.64 1465.06 1251.99C1467.88 1250.36 1467.2 1247.41 1462.42 1244.61H1462.41Z" fill="#7742A5"/>
<path d="M1450.42 1225.78C1447.9 1224.31 1447.38 1222.34 1449.5 1221.11C1451.63 1219.88 1454.91 1220.14 1457.38 1221.58C1460.06 1223.14 1460.58 1225.11 1458.45 1226.34C1456.32 1227.57 1452.94 1227.25 1450.42 1225.78ZM1459.45 1230.25L1465.17 1226.95L1492.85 1243.13L1487.13 1246.43L1459.45 1230.25Z" fill="#7742A5"/>
<path d="M1502.49 1219.17L1518.34 1228.43L1512.62 1231.73L1498.01 1223.19C1493.53 1220.57 1490.01 1220.22 1487.48 1221.68C1484.73 1223.27 1485.12 1225.79 1490.21 1228.77L1503.9 1236.77L1498.18 1240.07L1470.5 1223.89L1475.96 1220.74L1479.2 1222.64C1478.37 1220.37 1479.4 1218.28 1482.07 1216.74C1486.73 1214.05 1494.06 1214.25 1502.49 1219.18V1219.17Z" fill="#7742A5"/>
<path d="M1516.4 1197.41L1539.45 1210.88C1549.74 1216.89 1550.51 1221.94 1543.4 1226.05C1539.66 1228.21 1534.74 1229.55 1529.91 1229.41L1526.42 1224.73C1530.01 1224.87 1534 1224.01 1536.53 1222.55C1540.56 1220.23 1539.75 1217.71 1534.76 1214.79L1533.58 1214.1C1534.39 1216.32 1533.36 1218.23 1530.79 1219.71C1525.33 1222.86 1515.63 1222.3 1507.55 1217.58C1499.47 1212.86 1498.57 1207.22 1504.04 1204.07C1506.79 1202.48 1510.35 1201.92 1514.53 1202.62L1510.98 1200.54L1516.41 1197.41H1516.4ZM1523.72 1208.24C1519.66 1205.86 1514.76 1205.52 1511.76 1207.25C1508.75 1208.98 1509.28 1211.85 1513.34 1214.22C1517.4 1216.59 1522.33 1216.92 1525.34 1215.19C1528.35 1213.46 1527.78 1210.61 1523.72 1208.24Z" fill="#7742A5"/>
<path d="M1313.03 1404.87L1309.46 1400.82C1313.13 1400.86 1317.13 1400.05 1319.71 1398.57C1322.66 1396.87 1322.48 1395.37 1320.63 1394.29C1314.98 1390.99 1306.35 1400.47 1295.13 1393.92C1290 1390.92 1288.68 1386.72 1294.8 1383.19C1297.51 1381.63 1301.18 1380.56 1304.94 1380.44L1308.71 1384.43C1305.12 1384.65 1302.28 1385.38 1300.37 1386.48C1297.42 1388.18 1297.83 1389.75 1299.73 1390.85C1305.29 1394.1 1313.97 1384.64 1325.05 1391.12C1330.1 1394.07 1331.43 1398.31 1325.28 1401.86C1321.87 1403.83 1317 1404.98 1313.02 1404.87H1313.03Z" fill="#7742A5"/>
<path d="M1343.38 1379.56L1330.87 1386.78C1334.22 1388.2 1337.74 1388.23 1340.26 1386.78C1342.01 1385.77 1342.54 1384.61 1342.17 1383.08L1348.6 1383.88C1349.52 1386.2 1348.51 1388.29 1345.53 1390.01C1339.81 1393.31 1331.05 1392.5 1324.14 1388.47C1317.2 1384.41 1315.97 1379.31 1321.02 1376.4C1325.88 1373.6 1334.2 1374.11 1341.66 1378.47C1342.18 1378.77 1342.85 1379.24 1343.38 1379.58V1379.56ZM1326.88 1384.52L1335.03 1379.82C1331.76 1378.3 1328.29 1378.1 1326.14 1379.34C1323.96 1380.6 1324.24 1382.59 1326.88 1384.52Z" fill="#7742A5"/>
<path d="M1343.09 1363.65L1349.3 1367.28C1348.86 1367.49 1348.51 1367.64 1348.14 1367.85C1345.5 1369.38 1345.77 1371.57 1350.21 1374.17L1361.16 1380.57L1356.36 1383.34L1333.15 1369.78L1337.73 1367.14L1340.79 1368.93C1339.72 1366.95 1340.52 1365.13 1343.07 1363.66L1343.09 1363.65Z" fill="#7742A5"/>
<path d="M1363.29 1352.4L1379.52 1369.99L1374.57 1372.84L1344.42 1363.28L1349.37 1360.43L1369.74 1367.01L1358.69 1355.05L1363.3 1352.39L1363.29 1352.4Z" fill="#7742A5"/>
<path d="M1357.68 1347.52C1355.57 1346.29 1355.13 1344.64 1356.91 1343.61C1358.69 1342.58 1361.44 1342.8 1363.51 1344.01C1365.75 1345.32 1366.19 1346.97 1364.41 1348C1362.63 1349.03 1359.79 1348.76 1357.67 1347.53L1357.68 1347.52ZM1365.25 1351.27L1370.05 1348.5L1393.26 1362.06L1388.46 1364.83L1365.25 1351.27Z" fill="#7742A5"/>
<path d="M1384.88 1353.43C1377.89 1349.35 1376.78 1344.23 1382.16 1341.13C1385.63 1339.13 1390.48 1338.78 1395.48 1340.31L1394.56 1344.09C1391.47 1343.32 1389.15 1343.5 1387.65 1344.37C1385.22 1345.77 1385.69 1348.26 1389.74 1350.63C1393.79 1353 1398.07 1353.29 1400.5 1351.89C1402.01 1351.02 1402.38 1349.71 1401.03 1347.88L1407.6 1347.4C1410.11 1350.26 1409.53 1353.1 1406.06 1355.1C1400.68 1358.2 1391.88 1357.52 1384.89 1353.44L1384.88 1353.43Z" fill="#7742A5"/>
<path d="M1422.07 1334.18L1409.56 1341.4C1412.91 1342.82 1416.43 1342.85 1418.95 1341.4C1420.7 1340.39 1421.23 1339.23 1420.86 1337.7L1427.29 1338.5C1428.21 1340.82 1427.2 1342.91 1424.22 1344.63C1418.5 1347.93 1409.74 1347.12 1402.83 1343.09C1395.89 1339.03 1394.66 1333.93 1399.71 1331.02C1404.57 1328.22 1412.89 1328.73 1420.35 1333.09C1420.87 1333.39 1421.54 1333.86 1422.07 1334.2V1334.18ZM1405.57 1339.14L1413.72 1334.44C1410.45 1332.92 1406.98 1332.72 1404.83 1333.96C1402.65 1335.22 1402.93 1337.21 1405.57 1339.14Z" fill="#7742A5"/>
<path d="M1698.26 1174.15L1785.21 1171.42C1785.38 1171.42 1785.52 1171.55 1785.52 1171.72V1208.11C1785.52 1209.45 1784.82 1210.7 1783.68 1211.4L1700.61 1262.45C1699.17 1263.34 1697.36 1263.36 1695.89 1262.51L1611.01 1213.51V1213.27L1698.27 1174.15H1698.26Z" fill="#F1F2F2"/>
<path d="M1711.48 1173.74L1785.21 1171.42C1785.38 1171.42 1785.52 1171.55 1785.52 1171.72V1208.11C1785.52 1209.45 1784.82 1210.7 1783.68 1211.4L1711.48 1255.77V1173.73V1173.74Z" fill="#D1D3D4"/>
<path d="M1684.51 1180.32L1698.26 1174.15H1698.69V1263.1C1697.73 1263.2 1696.75 1263.02 1695.88 1262.52L1684.51 1255.95V1180.31V1180.32Z" fill="#D1D3D4"/>
<path d="M1698.26 1174.15L1785.21 1171.42C1785.38 1171.42 1785.52 1171.55 1785.52 1171.72V1208.11C1785.52 1209.45 1784.82 1210.7 1783.68 1211.4L1700.61 1262.45C1699.17 1263.34 1697.36 1263.36 1695.89 1262.51L1611.01 1213.51V1213.27L1698.27 1174.15H1698.26Z" stroke="#7742A5" stroke-width="5" stroke-miterlimit="10" stroke-linecap="round"/>
<path d="M1612.92 1113.59L1698.26 1161.27L1611 1213.27L1524.6 1163.39C1524.22 1163.17 1524.22 1162.62 1524.6 1162.4L1609.1 1113.61C1610.28 1112.93 1611.73 1112.92 1612.92 1113.58V1113.59Z" fill="#D9D2A3"/>
<path d="M1612.92 1113.59L1698.26 1161.27L1611 1213.27L1524.6 1163.39C1524.22 1163.17 1524.22 1162.62 1524.6 1162.4L1609.1 1113.61C1610.28 1112.93 1611.73 1112.92 1612.92 1113.58V1113.59Z" stroke="#7742A5" stroke-width="5" stroke-miterlimit="10" stroke-linecap="round"/>
<path d="M1698.26 1161.28L1784.65 1171.31C1784.93 1171.34 1785.02 1171.72 1784.77 1171.87L1699.59 1224.22C1698.73 1224.75 1697.71 1224.96 1696.71 1224.83L1613.09 1213.57C1612.4 1213.48 1612.21 1212.57 1612.81 1212.21L1698.25 1161.29L1698.26 1161.28Z" fill="#D9D2A3"/>
<path d="M1698.26 1161.28L1784.65 1171.31C1784.93 1171.34 1785.02 1171.72 1784.77 1171.87L1699.59 1224.22C1698.73 1224.75 1697.71 1224.96 1696.71 1224.83L1613.09 1213.57C1612.4 1213.48 1612.21 1212.57 1612.81 1212.21L1698.25 1161.29L1698.26 1161.28Z" stroke="#7742A5" stroke-width="5" stroke-miterlimit="10" stroke-linecap="round"/>
<path d="M1349.07 1420.34L1621.35 1261.83C1624.03 1260.27 1627.36 1260.29 1630.02 1261.89L1645 1270.88C1647.64 1272.46 1647.6 1276.3 1644.94 1277.84L1371.81 1435.53C1369.17 1437.05 1365.93 1437.05 1363.29 1435.53L1349.08 1427.33C1346.39 1425.78 1346.39 1421.91 1349.07 1420.35V1420.34Z" fill="url(#paint9_linear_581_6375)"/>
<path d="M1349.07 1420.34L1621.35 1261.83C1624.03 1260.27 1627.36 1260.29 1630.02 1261.89L1645 1270.88C1647.64 1272.46 1647.6 1276.3 1644.94 1277.84L1371.81 1435.53C1369.17 1437.05 1365.93 1437.05 1363.29 1435.53L1349.08 1427.33C1346.39 1425.78 1346.39 1421.91 1349.07 1420.35V1420.34Z" stroke="#7742A5" stroke-width="5" stroke-miterlimit="10" stroke-linecap="round"/>
<defs>
<linearGradient id="paint0_linear_581_6375" x1="2031.42" y1="854.54" x2="2406.83" y2="854.54" gradientUnits="userSpaceOnUse">
<stop stop-color="#8A55FF"/>
<stop offset="0.15" stop-color="#9357F8"/>
<stop offset="0.42" stop-color="#AD5FE5"/>
<stop offset="0.75" stop-color="#D86CC7"/>
<stop offset="1" stop-color="#FD78AD"/>
</linearGradient>
<linearGradient id="paint1_linear_581_6375" x1="309.44" y1="450.01" x2="525.73" y2="450.01" gradientUnits="userSpaceOnUse">
<stop stop-color="#413FD9"/>
<stop offset="0.07" stop-color="#4841DC"/>
<stop offset="0.47" stop-color="#6B4BEF"/>
<stop offset="0.79" stop-color="#8152FA"/>
<stop offset="1" stop-color="#8A55FF"/>
</linearGradient>
<linearGradient id="paint2_linear_581_6375" x1="537.69" y1="840.471" x2="1559.64" y2="840.471" gradientUnits="userSpaceOnUse">
<stop stop-color="#413FD9"/>
<stop offset="0.07" stop-color="#4841DC"/>
<stop offset="0.47" stop-color="#6B4BEF"/>
<stop offset="0.79" stop-color="#8152FA"/>
<stop offset="1" stop-color="#8A55FF"/>
</linearGradient>
<linearGradient id="paint3_linear_581_6375" x1="747.91" y1="726.41" x2="829.44" y2="726.41" gradientUnits="userSpaceOnUse">
<stop stop-color="#8A55FF"/>
<stop offset="0.15" stop-color="#9357F8"/>
<stop offset="0.42" stop-color="#AD5FE5"/>
<stop offset="0.75" stop-color="#D86CC7"/>
<stop offset="1" stop-color="#FD78AD"/>
</linearGradient>
<linearGradient id="paint4_linear_581_6375" x1="1273.91" y1="696.8" x2="1355.44" y2="696.8" gradientUnits="userSpaceOnUse">
<stop stop-color="#8A55FF"/>
<stop offset="0.15" stop-color="#9357F8"/>
<stop offset="0.42" stop-color="#AD5FE5"/>
<stop offset="0.75" stop-color="#D86CC7"/>
<stop offset="1" stop-color="#FD78AD"/>
</linearGradient>
<linearGradient id="paint5_linear_581_6375" x1="1273.91" y1="696.8" x2="1355.44" y2="696.8" gradientUnits="userSpaceOnUse">
<stop stop-color="#8A55FF"/>
<stop offset="0.15" stop-color="#9357F8"/>
<stop offset="0.42" stop-color="#AD5FE5"/>
<stop offset="0.75" stop-color="#D86CC7"/>
<stop offset="1" stop-color="#FD78AD"/>
</linearGradient>
<linearGradient id="paint6_linear_581_6375" x1="1589.97" y1="295.01" x2="1837.49" y2="295.01" gradientUnits="userSpaceOnUse">
<stop stop-color="#8A55FF"/>
<stop offset="0.15" stop-color="#9357F8"/>
<stop offset="0.42" stop-color="#AD5FE5"/>
<stop offset="0.75" stop-color="#D86CC7"/>
<stop offset="1" stop-color="#FD78AD"/>
</linearGradient>
<linearGradient id="paint7_linear_581_6375" x1="1269.94" y1="395.23" x2="1389.5" y2="395.23" gradientUnits="userSpaceOnUse">
<stop stop-color="#413FD9"/>
<stop offset="1" stop-color="#8A55FF"/>
</linearGradient>
<linearGradient id="paint8_linear_581_6375" x1="587.91" y1="281.43" x2="1219.39" y2="433.37" gradientUnits="userSpaceOnUse">
<stop stop-color="#8A55FF"/>
<stop offset="0.39" stop-color="#BC64DB"/>
<stop offset="0.8" stop-color="#EA72B9"/>
<stop offset="1" stop-color="#FD78AD"/>
</linearGradient>
<linearGradient id="paint9_linear_581_6375" x1="1347.06" y1="1348.67" x2="1646.95" y2="1348.67" gradientUnits="userSpaceOnUse">
<stop stop-color="#8A55FF"/>
<stop offset="0.39" stop-color="#BC64DB"/>
<stop offset="0.8" stop-color="#EA72B9"/>
<stop offset="1" stop-color="#FD78AD"/>
</linearGradient>
</defs>
</svg>
